<svg xmlns="http://www.w3.org/2000/svg" xml:space="preserve" id="Ebene_2" width="512" height="341.333" x="0" y="0" viewBox="0 0 512 341.333"><style>.st0{fill:#3f724a}.st2{fill:#fff}.st3{fill:#3f724a;stroke:#fff;stroke-width:.52756;stroke-linecap:round;stroke-linejoin:round;stroke-miterlimit:10}</style><path d="M0 0h512v341.333H0z" class="st0"/><path d="m253.27 26.106 3.567 2.619-1.394 4.179 3.566-2.563 3.566 2.618-1.337-4.234 3.566-2.563-4.401-.056-1.338-4.178-1.393 4.178zm16.532.289 3.244 3.008-1.86 3.993 3.834-2.14 3.244 3.008-.846-4.36 3.835-2.139-4.367-.557-.852-4.304-1.86 3.993zm16.39 2.172 2.88 3.358-2.304 3.755 4.054-1.69 2.88 3.36-.344-4.428 4.054-1.689-4.275-1.05-.355-4.374-2.304 3.755zm16.035 4.026 2.478 3.664-2.716 3.468 4.22-1.216 2.478 3.665.164-4.437 4.22-1.216-4.127-1.531.145-4.386-2.717 3.468zm15.472 5.827 2.044 3.923-3.094 3.136 4.33-.727 2.046 3.924.668-4.39 4.331-.727-3.926-1.992.645-4.34-3.095 3.135zm14.706 7.553 1.584 4.131-3.43 2.763 4.385-.229 1.584 4.13 1.164-4.284 4.386-.228-3.673-2.427 1.134-4.238-3.43 2.762zm13.75 9.181 1.103 4.284-3.724 2.354 4.383.273 1.103 4.284 1.645-4.124 4.383.273-3.372-2.829 1.61-4.081-3.723 2.353zm12.614 10.688.607 4.382-3.967 1.914 4.323.771.607 4.382 2.105-3.91 4.323.772-3.028-3.196 2.065-3.871-3.967 1.913-3.068-3.156zM370.082 77.9l.104 4.423-4.16 1.448 4.207 1.26.103 4.422 2.537-3.644 4.207 1.258-2.643-3.519 2.493-3.61-4.16 1.448zm9.865 13.268-.402 4.405-4.297.965 4.036 1.73-.401 4.406 2.935-3.331 4.036 1.73-2.225-3.798 2.889-3.303-4.298.965zm8.288 14.305-.901 4.332-4.38.468 3.813 2.18-.902 4.33 3.297-2.974 3.812 2.179-1.777-4.028 3.246-2.951-4.38.468zm6.603 15.157-1.389 4.2-4.404-.033 3.539 2.6-1.39 4.2 3.615-2.58 3.54 2.6-1.308-4.204 3.561-2.563-4.404-.033zm4.832 15.811-1.858 4.015-4.372-.535 3.22 2.986-1.86 4.014 3.885-2.15 3.22 2.985-.819-4.325 3.83-2.14-4.372-.536zm2.999 16.26-2.304 3.776-4.283-1.03 2.859 3.333-2.305 3.777 4.105-1.695 2.858 3.334-.32-4.39 4.048-1.69-4.282-1.03zm1.125 16.494-2.72 3.49-4.137-1.512 2.46 3.638-2.72 3.489 4.27-1.216 2.461 3.638.181-4.398 4.216-1.217-4.137-1.512zm-.763 16.516-3.1 3.157-3.937-1.975 2.03 3.895-3.1 3.157 4.38-.72 2.03 3.894.682-4.35 4.326-.728-3.937-1.973zm-2.64 16.32-3.44 2.783-3.686-2.41 1.572 4.101-3.44 2.782 4.435-.216 1.572 4.1 1.174-4.242 4.381-.23-3.687-2.41 1.12-4.257zm-4.483 15.914-3.734 2.373-3.39-2.815 1.095 4.253-3.734 2.372 4.43.291 1.095 4.253 1.65-4.081 4.379.27-3.39-2.814zm-6.269 15.299-3.98 1.931-3.045-3.182.602 4.35-3.98 1.93 4.368.795.603 4.35 2.103-3.867 4.32.768-3.045-3.182zm-7.971 14.484-4.175 1.465-2.663-3.509.103 4.39-4.175 1.465 4.25 1.287.103 4.39 2.53-3.601 4.204 1.255-2.662-3.508zm-9.571 13.482-4.314.98-2.246-3.79-.398 4.373-4.315.98 4.076 1.762-.4 4.374 2.926-3.29 4.033 1.726-2.245-3.79zm-11.045 12.302-4.398.481-1.8-4.02-.893 4.299-4.4.48 3.849 2.217-.894 4.3 3.28-2.936 3.81 2.175-1.798-4.02zm-12.376 10.963-4.424-.024-1.33-4.199-1.378 4.17-4.424-.024 3.57 2.64-1.378 4.17 3.593-2.542 3.538 2.595-1.33-4.2zm-13.545 9.48-4.392-.527-.842-4.323-1.845 3.984-4.393-.527 3.247 3.03-1.846 3.985 3.86-2.115 3.22 2.98-.842-4.322zm-14.537 7.875-4.304-1.025-.343-4.39-2.288 3.748-4.303-1.025 2.88 3.38-2.288 3.749 4.076-1.662 2.858 3.33-.343-4.392zm-15.34 6.167-4.16-1.51.16-4.4-2.7 3.462-4.158-1.508 2.475 3.686-2.7 3.463 4.24-1.186 2.46 3.634.16-4.402zm-15.944 4.377-3.96-1.973.66-4.355-3.076 3.133-3.96-1.973 2.04 3.945-3.077 3.133 4.346-.695 2.03 3.89.66-4.356zm-16.338 2.531-3.71-2.411 1.154-4.252-3.414 2.762-3.71-2.411 1.577 4.151-3.414 2.762 4.397-.195 1.573 4.096 1.153-4.251zm-16.52.652-3.41-2.818 1.63-4.093-3.707 2.355-3.41-2.818 1.093 4.304-3.707 2.354 4.39.308 1.097 4.248 1.63-4.092zm-16.487-1.235-3.066-3.19 2.086-3.878-3.951 1.916-3.067-3.189.595 4.4-3.951 1.917 4.327.806.605 4.346 2.085-3.88zm-16.238-3.107-2.683-3.518 2.514-3.616-4.143 1.454-2.684-3.518.09 4.44-4.144 1.453 4.207 1.295.105 4.386 2.515-3.617zm-15.78-4.937-2.263-3.8 2.91-3.307-4.283.972-2.264-3.8-.417 4.42-4.283.971 4.032 1.766-.395 4.37 2.91-3.307zm-15.112-6.705-1.816-4.034 3.268-2.953-4.365.478-1.817-4.034-.918 4.344-4.366.478 3.805 2.213-.891 4.296 3.268-2.953zm-14.25-8.383-1.344-4.215 3.583-2.56-4.391-.024-1.345-4.215-1.408 4.212-4.391-.024 3.527 2.633-1.375 4.166 3.584-2.56zm-13.201-9.953-.856-4.34 3.852-2.136-4.36-.524-.855-4.34-1.88 4.023-4.36-.524 3.206 3.017-1.842 3.983 3.853-2.136zm-11.981-11.393-.355-4.41 4.07-1.683-4.271-1.017-.355-4.41-2.326 3.783-4.272-1.018 2.84 3.364-2.284 3.746 4.07-1.682zm-10.604-12.685.15-4.422 4.236-1.207-4.128-1.498.15-4.42-2.742 3.492-4.127-1.498 2.437 3.665-2.695 3.462 4.235-1.208zm-9.09-13.81.654-4.376 4.347-.717-3.93-1.959.652-4.376-3.122 3.158-3.93-1.958 2.004 3.92-3.072 3.131 4.345-.717zm-7.454-14.758 1.148-4.272 4.4-.217-3.682-2.394 1.147-4.273-3.461 2.782-3.681-2.394 1.544 4.122-3.41 2.761 4.4-.217zm-5.724-15.51 1.627-4.114 4.395.286-3.384-2.798 1.628-4.114-3.757 2.37-3.384-2.799 1.064 4.271-3.702 2.355 4.395.286zm-3.918-16.062 2.085-3.902 4.334.786-3.044-3.166 2.086-3.902-4.001 1.925-3.044-3.165.57 4.365-3.946 1.917 4.334.785zm-2.063-16.404 2.517-3.639 4.217 1.274-2.664-3.49 2.517-3.64-4.195 1.456-2.662-3.49.069 4.4-4.14 1.455 4.217 1.274zm-.18-16.532 2.917-3.328 4.044 1.747-2.248-3.773 2.915-3.328-4.333.97-2.248-3.774-.433 4.38-4.278.974 4.044 1.747zm1.709-16.445 3.275-2.974 3.818 2.196-1.802-4.004 3.275-2.974-4.415.47-1.803-4.005-.93 4.302-4.361.48 3.818 2.196zm3.57-16.143 3.593-2.58 3.544 2.616-1.335-4.184 3.593-2.58-4.44-.038-1.335-4.185-1.414 4.17-4.387-.022 3.543 2.617zm5.388-15.63 3.864-2.155 3.22 3.004-.847-4.309 3.864-2.154-4.407-.544-.85-4.309-1.88 3.98-4.356-.52 3.222 3.003zm7.134-14.915 4.085-1.7 2.858 3.351-.352-4.377 4.084-1.7-4.316-1.043-.352-4.377-2.322 3.74-4.27-1.014 2.86 3.351zm8.789-14.004 4.25-1.223 2.459 3.655.149-4.389 4.252-1.223-4.17-1.528.15-4.39-2.734 3.452-4.125-1.495 2.458 3.656zm10.327-12.91 4.363-.73 2.025 3.91.648-4.343 4.364-.73-3.968-1.994.648-4.343-3.108 3.116-3.928-1.954 2.025 3.912zm11.732-11.65 4.418-.229L169 66.273l1.14-4.24 4.418-.23-3.715-2.432 1.14-4.24-3.444 2.741-3.68-2.39 1.566 4.117zM176 52.149l4.415.276 1.086 4.27 1.616-4.085 4.415.277-3.413-2.84 1.616-4.084-3.734 2.332-3.383-2.794 1.085 4.27zm14.065-8.69 4.355.778.593 4.365 2.07-3.873 4.355.78-3.067-3.213 2.07-3.872-3.975 1.89-3.042-3.16.592 4.364zm14.965-7.03 4.238 1.27.09 4.404 2.5-3.61 4.237 1.27-2.68-3.54 2.497-3.613-4.164 1.426-2.663-3.487.09 4.403-4.145 1.478m15.668-5.276 4.066 1.744-.412 4.385 2.894-3.303 4.065 1.745-2.26-3.823 2.894-3.302-4.3.94-2.248-3.768-.411 4.386zm16.168-3.458 3.84 2.197-.91 4.31 3.252-2.952 3.84 2.197-1.81-4.055 3.252-2.952-4.38.445-1.802-4-.91 4.31z" style="fill:#eec62d"/><path d="m259.01 236.507-7.493 65.408.012-65.836-14.9 64.128 7.517-65.406-22.113 62.012 14.924-64.122-29.037 59.086 22.136-62.003-35.584 55.391 29.06-59.075-41.666 50.973 35.604-55.377-47.205 45.892 41.685-50.958-52.128 40.211 47.221-45.874-56.372 34.007 52.143-40.192-59.881 27.36 56.385-33.987-62.61 20.356 59.891-27.338-64.522 13.086 62.618-20.332-65.594 5.646 64.527-13.063-65.809-1.867 65.595-5.622-65.167-9.357 65.808 1.892-63.676-16.725 65.164 9.381-61.354-23.874 63.67 16.749-58.234-30.713 61.346 23.897-54.352-37.15 58.221 30.734-49.763-43.104 54.339 37.17-44.526-48.495 49.747 43.122-38.707-53.255 44.507 48.512-32.383-57.32 38.687 53.27-25.64-60.638 32.364 57.332-18.56-63.166 25.616 60.648-11.238-64.87 18.536 63.173-3.77-65.728 11.214 64.874 3.746-65.73 3.746 65.73 11.215-64.874-3.77 65.728 18.536-63.172-11.239 64.869 25.617-60.648-18.56 63.166 32.363-57.332-25.64 60.638 38.688-53.27-32.384 57.32 44.507-48.512-38.707 53.255 49.748-43.122-44.526 48.495 54.339-37.17-49.764 43.104L371.4 103.11l-54.353 37.15 61.346-23.897-58.233 30.713 63.67-16.749-61.354 23.874 65.163-9.381-63.676 16.725 65.809-1.892-65.167 9.357 65.595 5.622-65.81 1.867 64.527 13.063-65.593-5.646 62.617 20.332-64.522-13.086 59.892 27.338-62.61-20.356 56.385 33.987-59.881-27.36 52.142 40.192-56.371-34.007 47.22 45.874-52.127-40.211 41.684 50.958-47.204-45.892 35.604 55.377-41.666-50.973 29.06 59.075-35.584-55.391 22.135 62.003-29.037-59.086 14.924 64.122-22.113-62.012 7.518 65.406-14.9-64.128.012 65.836z" class="st2"/><path d="M236.871 170.693a.56.56 0 0 0-.364-.156h-.156a.98.98 0 0 0-.676.676.55.55 0 0 1-.156.26c-.052.105-.26.209-.312.313-.053.104-.104.156-.104.26a.375.375 0 0 0 .208.364c.118.116.26.205.416.26q.122.073.26.104l.208-.052c.052 0 .104-.052.156-.104a3.9 3.9 0 0 0 .625-1.613.74.74 0 0 0-.105-.312" class="st0"/><path d="M348.565 226.306a12.8 12.8 0 0 0-1.04-4.63l-.105-.26-.208.104-.156-.156v-.052c0-.053.052-.104.052-.208a.74.74 0 0 0-.104-.313c-.052 0-.104-.26-.208-.416l-.156-.312-.104-.104a.3.3 0 0 0 .052-.208.64.64 0 0 0-.21-.417.52.52 0 0 0-.414-.208.45.45 0 0 0-.313.157.74.74 0 0 0-.104.312v.156a1.6 1.6 0 0 1-.364.52 1.16 1.16 0 0 1-.52.312h-.104l-.416.208.416.208c.18.083.285.273.26.469a3.7 3.7 0 0 1-.26 1.092 2.2 2.2 0 0 1-.26.728c-.104.104-.156.209-.573.209h-.156a.7.7 0 0 0-.312-.573l-.156-.156-.156.156a.62.62 0 0 0-.26.468.56.56 0 0 0 .156.364.6.6 0 0 0 .416.157l.052-.208.208.104c-.103.052-.156.104-.26.156q-.12.2-.208.416c-.052-.052-.104-.156-.156-.208a.63.63 0 0 0-.26-.26.8.8 0 0 0-.364-.156.35.35 0 0 0-.312.208.8.8 0 0 0-.105.416v.156c.025.326.113.644.26.937v.156a.4.4 0 0 1-.051.26h-.156c0 .051-.156.104-.364.208a.67.67 0 0 0-.364.572q.015.218.104.416a.7.7 0 0 0 .156.208l-.105.052a.8.8 0 0 0-.311.417v-.209l-.053-.208-.208.052a.59.59 0 0 0-.468.364c-.052.156-.052.26-.156.364l-.312.312a.8.8 0 0 0-.364.521v.208a.6.6 0 0 0-.26-.052h-.052a.9.9 0 0 0-.625.312q-.185.208-.416.364c-.052.052-.26.156-.416.26a.64.64 0 0 0-.312.573v.156a.47.47 0 0 0-.364-.156.46.46 0 0 0-.417.26 1.4 1.4 0 0 0-.468-.052.8.8 0 0 0-.364.052.7.7 0 0 0-.312.468h-.104a.78.78 0 0 0-.468.208l-.052.052c-.052-.052-.104-.104-.104-.156l-.157-.156-.156.104c-.364.26-.572.625-.832.676h-.156c-.156 0-.364-.051-.572-.051a.68.68 0 0 0-.52.155.52.52 0 0 0-.104.364v.365l-.21-.208.157.728v.104a2.6 2.6 0 0 1-.364.936c-.104.209-.416.52-.624.885a2 2 0 0 0-.468 1.145q.015.241.104.468.105.248.104.52c0 .312-.052.676-.052 1.04v.157c.052.728.52 1.196.468 1.716v.313c-.02.42.09.838.312 1.196.08.126.135.268.156.416a3 3 0 0 1-.208.676c0 .052-.052.105-.052.208a.8.8 0 0 0 .156.417.4.4 0 0 1 .053.155.16.16 0 0 1-.053.105c-.208.416-.52.832-.78 1.248a7.7 7.7 0 0 0-.832 1.457 4.6 4.6 0 0 0-.157.728c-.052.208-.104.313-.26.364a2.7 2.7 0 0 0-.676.313c-.165.227-.255.5-.26.78 0 .416-.52.936-.676 1.613l.207.052-.207.05q.069.283.05.574v.832c-.04.488.11.972.418 1.353.208.352.35.74.416 1.144q.07.202.208.364l.052.105s0 .052-.104.155a2.1 2.1 0 0 0-.312 1.3c-.02.445.05.887.208 1.3q.351.623.572 1.302c.127.443.402.83.78 1.092 0 .105.052.105.052.157.122.16.283.287.469.364q.36.08.728.104c.24.082.456.225.625.417.217.244.51.409.832.468q.13.019.26.05a2.6 2.6 0 0 0 1.457-.623 5.4 5.4 0 0 1 1.248-.728h.156c.156 0 .312.052.52.052a.66.66 0 0 0 .313-.052q.317-.186.676-.26c.52-.104.728-.624.884-.937q.278-.6.416-1.248c.157-.52.468-.99.677-1.613.312-1.04.676-2.03.988-3.121.417-1.51.989-2.81 1.509-4.318.416-1.196.676-2.393 1.196-3.538a3 3 0 0 0 .364-1.092v-.156l.052-.104a6 6 0 0 0 .313-.78c.312-.833.468-1.666.78-2.446.515-1.1.916-2.251 1.197-3.433q.064-.23.05-.468c0-.364-.05-.728-.05-1.093-.068-.464.16-.92.572-1.145l.156-.155c0 .05-.052.155-.052.208a.47.47 0 0 0 .052.26l.156.364.208-.364c.208-.313.26-.624.416-.833l-.052-.052.052-.052h.053v-.156l-.417-.104c-.052.052-.104.156-.156.208q.129-.33.208-.676v-.832a.65.65 0 0 0-.26-.47c-.104-.05-.104-.05-.104-.103 0-.156-.053-.572-.053-.988a1.8 1.8 0 0 1 .053-.572.2.2 0 0 1 .052-.105c.104.053.208.313.312.625s.156.728.572.884c.052 0 .104.052.156.052a.61.61 0 0 0 .52-.312c.31-.493.52-1.04.625-1.613v-.208c0-.52-.312-.78-.417-1.092a7.7 7.7 0 0 1-.155-2.08zm4.11-77.254.052-.209-.3.525a.54.54 0 0 0 .248-.316m-.677.416h-.26q-.112-.001-.19.006c-.008.047-.018.094-.018.15l.104.104q.22.136.469.208l.324-.568c-.023.015-.04.037-.064.048a.9.9 0 0 1-.364.052z" class="st3"/><path d="M265.857 288.728a1.3 1.3 0 0 1-.328-.083.3.3 0 0 0-.097-.019h-.26a.6.6 0 0 1-.236-.088 1.6 1.6 0 0 0-.62-.452.43.43 0 0 0 .078-.213.26.26 0 0 0-.076-.21l-.052-.052a.3.3 0 0 0-.1-.063 4 4 0 0 0-.393-.113 6 6 0 0 0-.43-.052 3 3 0 0 1-.306-.039.8.8 0 0 0 .058-.336c0-.32-.196-.515-.524-.515h-.104a.26.26 0 0 0-.186.076l-.052.052a.26.26 0 0 0-.078.188v.155q.002.091.026.216c.011.06.026.13.026.198a.49.49 0 0 1-.305-.463c.022-.162.103-.382.174-.575.077-.21.138-.376.138-.52v-.104a2.1 2.1 0 0 0-.359-.982 10 10 0 0 1-.604-.903l-.026-.058v-.085a.26.26 0 0 0-.077-.187c-.058-.13-.21-.13-.29-.13q-.067-.001-.096-.044c-.001-.006-.009-.045-.005-.084q.045-.35.179-.678a.76.76 0 0 0 .442.137c.319 0 .437-.183.548-.405a.3.3 0 0 0 .02-.05q.103-.389.112-.79v-.11c-.02-1.013-.323-2-.875-2.85a19 19 0 0 1-2.051-4.36c-.066-.231-.13-.478-.193-.725-.126-.496-.257-1.007-.436-1.473-.092-.253-.251-.504-.42-.77-.233-.367-.473-.746-.556-1.163a.264.264 0 0 0-.243-.212.35.35 0 0 1-.269-.15 8 8 0 0 0-.631-.676c-.303-.301-.616-.611-.876-.986a15 15 0 0 1-.966-1.73 2.5 2.5 0 0 1-.236-.942 1.3 1.3 0 0 0-.18-.447 1.6 1.6 0 0 1-.192-.436 1 1 0 0 1-.043-.342v-.27a.96.96 0 0 0-.287-.76.6.6 0 0 1-.077-.287v-.358c0-.23-.052-.447-.105-.676a5 5 0 0 1-.105-.55 5 5 0 0 1-.05-.436 4 4 0 0 0-.058-.47.7.7 0 0 1-.048-.296c.001-.145.015-.273.028-.393q.022-.176.025-.352v-.156a.3.3 0 0 0-.007-.062 11.4 11.4 0 0 0-.746-2.132 3.7 3.7 0 0 1-.131-.932v-1.245q-.087-.65-.104-1.307v-.253q.027-.106.049-.213c.051-.232.124-.561.156-.79l.003-.35a3.5 3.5 0 0 0-.788-2.04 10 10 0 0 0-.237-.335c-.143-.197-.29-.4-.415-.617a3 3 0 0 1-.206-.48c-.064-.178-.125-.346-.228-.484-.66-.85-1.013-1.795-1.354-2.71-.208-.557-.423-1.133-.703-1.675-.244-.47-.433-.99-.615-1.493-.357-.984-.727-2.002-1.528-2.695-.908-.784-1.314-1.862-1.314-3.494 0-.121.013-.243.025-.364.014-.138.028-.278.028-.416v-.208c0-.487.052-.986.104-1.468.051-.477.104-.97.104-1.445a3 3 0 0 0-.028-.345 2 2 0 0 1-.024-.28.3.3 0 0 0-.019-.096 1.3 1.3 0 0 1-.086-.39c.004-.005.015-.053.018-.06.097-.17.224-.303.336-.421.12-.127.215-.227.257-.354a2 2 0 0 0 .068-.39c.01-.1.023-.21.045-.32a.57.57 0 0 1 .107-.307l.13-.25a.26.26 0 0 0-.003-.24.2.2 0 0 1-.022-.114c0-.327.172-.78.31-1.145.099-.264.184-.493.209-.662.034-.206.042-.43.049-.643.016-.453.03-.88.279-1.285.148-.257.214-.543.194-.832a.71.71 0 0 1 .185-.63c.366-.331.678-.717.925-1.145.123-.321.214-.611.287-.9a.78.78 0 0 1 .652-.478h.005c.329 0 .461-.105.607-.325a8 8 0 0 1 .323-.64c.495-.92.74-1.954.71-3a5.2 5.2 0 0 0-.164-1.36 4.4 4.4 0 0 0-.719-1.544 7 7 0 0 1-.529-1.467 1.1 1.1 0 0 0-.172-.343c-.077-.118-.156-.24-.183-.387a2.6 2.6 0 0 0-.118-.954l-.172-.35a.3.3 0 0 0-.073-.09l-.005-.036a.3.3 0 0 0-.016-.06 1.3 1.3 0 0 1-.086-.387.51.51 0 0 1 .308-.418.3.3 0 0 0 .083-.056l.156-.156c.054-.038.13-.09.212-.14.146-.03.23-.14.23-.307v-.364a3.2 3.2 0 0 0-.454-1.592 10.6 10.6 0 0 1-.858-2.073c-.08-.214-.1-.4-.12-.581a1.8 1.8 0 0 0-.096-.482c-.07-.288-.282-.536-.506-.8-.12-.14-.245-.284-.352-.445a3.15 3.15 0 0 1-.53-1.395.34.34 0 0 1 .118-.287.263.263 0 0 0-.021-.417 1.06 1.06 0 0 1-.38-.477c.018-.08.007-.162-.052-.221l-.052-.052a.32.32 0 0 1-.08-.223c.016-.182.048-.377.097-.566a.26.26 0 0 0-.022-.188.3.3 0 0 1-.026-.076c.004-.085-.058-.197-.13-.327-.083-.152-.178-.325-.178-.515 0-.132-.097-.296-.229-.313a.17.17 0 0 1-.119-.08c-.015-.03-.038-.09-.061-.147a4 4 0 0 0-.07-.167 6 6 0 0 0-.158-.62c-.2-.756-.947-1.434-1.605-2.032l-.236-.216c-.5-.386-.88-1.005-1.215-1.55q-.148-.245-.305-.484a16.4 16.4 0 0 0-2.283-2.445l-.066-.066v-.018a.26.26 0 0 0-.11-.192 1.37 1.37 0 0 1-.48-.611q-.142-.255-.28-.512a7 7 0 0 0-.267-.473l-.13-.174a.3.3 0 0 0 .019-.096v-.364a.3.3 0 0 0-.025-.113 7 7 0 0 0-.451-.812.26.26 0 0 0 .032-.286l-.469-.936a3 3 0 0 0-.11-.192.23.23 0 0 0-.05-.15.72.72 0 0 1-.176-.475l.01-.064c.039.102.137.17.247.17.127 0 .273-.09.308-.21.105.08.253.07.346-.023.057-.056.085-.113.102-.147.23-.262.397-.573.487-.91a.3.3 0 0 0 .009-.067v-.103c0-.095-.01-.221-.022-.365a7 7 0 0 1-.03-.571.85.85 0 0 1 .236-.7l.102-.103a.264.264 0 0 0 0-.373l-.207-.208-.062-.058c-.07-.063-.07-.063-.07-.12.022-.01.054-.05.07-.065a.13.13 0 0 1 .089-.035h.169c.062 0 .092.008.12.022a.263.263 0 0 0 .375-.308 2.4 2.4 0 0 1-.094-.608.4.4 0 0 1 .03-.201.3.3 0 0 0 .022-.105.32.32 0 0 0-.089-.224c-.052-.045-.12-.09-.188-.09h-.028c-.197 0-.332-.085-.399-.22l-.026-.06a1.1 1.1 0 0 1 .294-.63c.084-.108.158-.194.225-.273.107-.124.192-.222.235-.31a.3.3 0 0 0 .026-.086 1 1 0 0 1 .123-.37c.063-.08.14-.193.207-.31.148-.18.154-.474.161-.815.006-.238.011-.506.075-.762a.27.27 0 0 0-.004-.144.9.9 0 0 1-.04-.32q.018-.347.098-.684c.12-.352.194-.744.214-1.14 0-.263-.064-.524-.185-.76a1 1 0 0 0-.264-.384.4.4 0 0 1-.123-.28.26.26 0 0 0-.145-.23 1 1 0 0 0-.124-.052c-.02-.021-.06-.04-.087-.053a.2.2 0 0 1-.112-.18.5.5 0 0 1 .1-.147 1 1 0 0 0 .246-.193.264.264 0 0 0-.194-.443h-.26c-.1 0-.19.057-.236.146l-.054.113a.28.28 0 0 1-.214-.133.26.26 0 0 0-.224-.126.67.67 0 0 1-.405-.148.58.58 0 0 1-.229-.295q-.081-.605-.258-1.19a.263.263 0 0 0-.41-.136h-.007a.256.256 0 0 0-.25.209h-.107a.34.34 0 0 1-.237-.087.3.3 0 0 1-.07-.181v-.093a.26.26 0 0 0-.077-.186l-.156-.156a.263.263 0 0 0-.45.186.2.2 0 0 1-.112.179q-.301.078-.608.133-.379.1-.77.1h-.328a.3.3 0 0 0-.118.028l-.208.105a1 1 0 0 0-.086.047.3.3 0 0 0-.108-.023.36.36 0 0 0-.243.104h-.017a.3.3 0 0 0-.118.028l-.118.058a.26.26 0 0 0-.232-.14h-.05a.26.26 0 0 0-.159-.05h-.104a.264.264 0 0 0-.263.264l-.012.028-.006-.007a.263.263 0 0 0-.372-.001v.001a.8.8 0 0 0-.13.156l-.07-.052a.263.263 0 0 0-.372-.002l-.002.002-.05.052-.053.058a.26.26 0 0 0-.127-.031h-.572a.33.33 0 0 0-.18-.048.3.3 0 0 0-.214.073l-.058.061c-.064.07-.064.07-.12.07a.33.33 0 0 0-.193-.148.6.6 0 0 1-.215-.107.3.3 0 0 0-.046-.03 1 1 0 0 1-.1-.061 1.4 1.4 0 0 0-.16-.095 2.03 2.03 0 0 1-.764-.864 1.7 1.7 0 0 1-.34-.895.7.7 0 0 0 .048-.17l.03-.058a.264.264 0 0 0-.256-.38l-.008-.017a.2.2 0 0 1-.022-.114.4.4 0 0 1 .03-.172.263.263 0 0 0-.215-.373.5.5 0 0 1-.2-.067c-.06-.03-.08-.06-.082-.095a.257.257 0 1 0-.084-.453.2.2 0 0 1-.136-.136l-.172-.353a3.7 3.7 0 0 0-2.012-1.897 4 4 0 0 0-1.16-.174h-.237c-.076 0-.174.01-.285.023-.12.013-.256.029-.392.029h-.208l-.31.057a2.3 2.3 0 0 1-.47.05l-.52-.003a2 2 0 0 0-.324.029c-.079.01-.158.023-.249.023a.26.26 0 0 0-.157.052h-.103l-.17.032a.2.2 0 0 0-.107-.03q-.014 0-.026.002-.225.036-.45.065c-.224.03-.447.061-.599.092l-.225.042c-.478.087-.929.17-1.412.214l-.474.053c-.28.078-.506.173-.722.29a1 1 0 0 0-.25.183.9.9 0 0 0-.265.276.3.3 0 0 0-.03.077.685.685 0 0 1-.638.525h-.094c-.01-.007-.06-.04-.092-.09a.264.264 0 0 0-.339-.09l-.104.052a1.7 1.7 0 0 1-.443.13c-.894.129-1.524.549-2.19.994-.196.13-.397.263-.612.395-.32.203-.668.284-1.005.361q-.343.07-.67.19a4.5 4.5 0 0 0-1.024.434.3.3 0 0 0-.062.05 3.2 3.2 0 0 1-.72.574 1 1 0 0 1-.3.07.57.57 0 0 1-.364-.18 2 2 0 0 0-1.07-.492 2 2 0 0 0-.28-.058 2 2 0 0 1-.234-.043.5.5 0 0 1-.327-.17.26.26 0 0 0-.297-.081l-.03.01a2 2 0 0 1-.33-.324l-.04-.078a.264.264 0 0 0-.472 0l-.053.104a.44.44 0 0 1-.34.167h-.065a.96.96 0 0 1-.562-.162.26.26 0 0 0-.297-.001l-.053.007a.5.5 0 0 1-.237-.068.26.26 0 0 0-.134-.037h-.208q-1.077.05-2.134.266c-.1.025-.19.04-.28.048h-.01a.4.4 0 0 1-.177-.032.26.26 0 0 0-.27.037c-.833.04-1.66.181-2.46.42a6 6 0 0 0-.8.41c-.434.25-.88.51-1.39.57a3.5 3.5 0 0 0-1.6.792.5.5 0 0 1-.36.195.45.45 0 0 0-.196-.053h-.208a1.76 1.76 0 0 1-.846-.27 3.3 3.3 0 0 0-.657-.288c-.269-.095-.546-.193-.78-.374-.316-.25-.673-.444-1.018-.631-.478-.26-.97-.53-1.402-.96-.354-.354-.684-.75-1.002-1.135-.362-.436-.735-.886-1.15-1.278-.066-.103-.212-.172-.436-.279l-.238-.115a4.7 4.7 0 0 1-.846-.496.5.5 0 0 1-.21-.31.26.26 0 0 0-.17-.195.9.9 0 0 1-.32-.2c-.103-.074-.167-.127-.227-.176-.093-.076-.173-.142-.256-.184a1.06 1.06 0 0 1-.518-.423 2.3 2.3 0 0 0-.464-.577.3.3 0 0 0-.069-.045 18 18 0 0 1-2.445-1.324.264.264 0 0 0-.263-.26h-.104q-.394-.075-.772-.21a.26.26 0 0 0 .047-.147h.048a.264.264 0 0 0 .114-.501.4.4 0 0 1-.093-.062.26.26 0 0 0-.164-.068.06.06 0 0 1-.047-.028.3.3 0 0 0-.035-.047.13.13 0 0 1-.035-.068c-.03-.106-.04-.17-.052-.235a2 2 0 0 0-.062-.274 2.4 2.4 0 0 1-.09-.508.264.264 0 0 0-.264-.245h-.007a.63.63 0 0 1-.364-.109.52.52 0 0 1-.199-.374.8.8 0 0 1 .076-.225l.054-.106a.26.26 0 0 0 .004-.227 1 1 0 0 1-.08-.325c0-.082.05-.175.134-.226a.3.3 0 0 0 .048-.038l.052-.053a.264.264 0 0 0-.082-.428 1 1 0 0 1-.2-.12.3.3 0 0 0-.1-.05l-.01-.088.001-.176a.3.3 0 0 0-.008-.063l-.044-.178v-.28a.264.264 0 0 0-.263-.263l-.049.001a.42.42 0 0 0-.138-.297.5.5 0 0 1-.098-.13.26.26 0 0 0-.17-.138l-.07-.07-.014-.04a.4.4 0 0 1-.03-.187v-.176a.264.264 0 0 0-.264-.264h-.105a.264.264 0 0 0-.15-.288 2 2 0 0 1-.322-.184c-.13-.067-.194-.162-.2-.268a.264.264 0 0 0-.23-.246l-.257-.032a1 1 0 0 0-.306-.29 4 4 0 0 1-.618-.36.3.3 0 0 1-.149-.252.264.264 0 0 0-.263-.265c.031-.078.058-.14.085-.204a4 4 0 0 0 .112-.28.264.264 0 0 0-.25-.348c-.07 0-.189.028-.238.077l-.054.054a.26.26 0 0 0-.19-.129l-.365-.05a.255.255 0 0 1-.19-.23l-.053-.223a1.26 1.26 0 0 0-.262-.697.26.26 0 0 0-.143-.095q-.018-.015-.035-.034a.263.263 0 0 0-.357-.016 1 1 0 0 0-.1-.07l-.019-.016.057-.114a.26.26 0 0 0-.007-.25.13.13 0 0 1-.017-.068.7.7 0 0 1 .074-.252.25.25 0 0 0 .03-.12.5.5 0 0 0-.039-.19 1.2 1.2 0 0 1-.17-.513.35.35 0 0 0 .053-.182.264.264 0 0 0-.45-.186l-.08.08a1.57 1.57 0 0 1-.775.207h-.002a.264.264 0 0 0-.258-.208.26.26 0 0 1-.204-.102.3.3 0 0 0-.084-.073l-.048-.096a.264.264 0 0 0-.303-.137l-.092-.214a.2.2 0 0 0 .007-.05v-.105a.6.6 0 0 0 .052-.208.264.264 0 0 0-.236-.262.57.57 0 0 1-.355-.178.3.3 0 0 0-.075-.057.5.5 0 0 1-.132-.098.26.26 0 0 0-.214-.085.3.3 0 0 0-.045-.07.4.4 0 0 1-.06-.091.5.5 0 0 1-.08-.259.13.13 0 0 1 .035-.075.26.26 0 0 0 .07-.178.5.5 0 0 0-.046-.2 1 1 0 0 0-.01-.099.13.13 0 0 1 .017-.084.264.264 0 0 0-.039-.323l-.053-.053a.12.12 0 0 1-.028-.092c.016-.24.063-.46.141-.669a.3.3 0 0 0 .017-.093.6.6 0 0 0-.025-.163 1.4 1.4 0 0 1-.129-.516.263.263 0 0 0 .174-.384l.06-.05.044-.029c.132 0 .325-.096.342-.228a.16.16 0 0 1 .08-.118.264.264 0 0 0 .05-.419.46.46 0 0 0-.283-.125.263.263 0 0 0-.26-.26.26.26 0 0 0-.12-.217 4.8 4.8 0 0 0-.37-1.393 2.04 2.04 0 0 0-1.006-1.17.26.26 0 0 0-.165-.026.7.7 0 0 0-.216.076.4.4 0 0 1 .073-.089q.142-.136.308-.22c.138-.083.262-.145.361-.194.143-.071.22-.11.277-.167a7.1 7.1 0 0 0 1.304-2.006.3.3 0 0 0 .021-.105q.155-.48.3-.965a.7.7 0 0 0 .057-.168.5.5 0 0 1 .032-.102.3.3 0 0 0 .028-.11c.026-.99.378-1.887.72-2.755.298-.761.608-1.548.684-2.379.043-.235.061-.498.052-.762q-.03-1.192-.21-2.371a2.24 2.24 0 0 0-.29-1.129 1.6 1.6 0 0 0-.23-.248c-.18-.166-.384-.353-.415-.631a.26.26 0 0 0 .13-.123l.155-.312a.263.263 0 0 0-.129-.36.83.83 0 0 1 .277-.601l.27-.272a.73.73 0 0 0 .234-.557 4 4 0 0 0-.505-1.377.264.264 0 0 0-.436-.027l-.009-.005a1.5 1.5 0 0 1-.46-.82.3.3 0 0 0-.035-.089 1.6 1.6 0 0 1-.177-.4.26.26 0 0 0-.245-.192h-.01c-.11 0-.209.07-.247.173a6 6 0 0 0-.157.504h-.01a.3.3 0 0 0-.059.005 1.4 1.4 0 0 1-.043-.362c.075-.7.23-1.417.455-2.107a.3.3 0 0 0 .012-.057 3.45 3.45 0 0 1 .484-1.449c.178-.214.392-.394.634-.533a1.53 1.53 0 0 0 .58-.7q.069-.22.117-.445l.051-.216a.72.72 0 0 1 .306-.468.26.26 0 0 0 .118-.22v-.156a3 3 0 0 1 .137-.42 1 1 0 0 0 .1-.126c.124-.167.293-.393.441-.65.156-.17.277-.374.35-.594a.264.264 0 0 0-.12-.312l-.146-.084c.336-.591.907-1.083 1.462-1.56.258-.221.501-.43.717-.646.61-.61.75-1.27.895-1.97.086-.407.174-.828.36-1.292l.126-.353c.317-.895.645-1.82 1.528-2.325 1.158-.662 1.713-1.13 2.146-2.324q.17-.493.404-.96l.156-.313a.26.26 0 0 0 .002-.232l.06-.07a.3.3 0 0 0 .062-.04.3.3 0 0 0 .047-.024c.13-.087.236-.238.337-.383.06-.082.114-.165.171-.222q.076-.09.175-.15c.346-.09.68-.146 1.002-.2q.281-.044.561-.098a5.2 5.2 0 0 0 2.72-1.203c.446-.413.911-.788 1.36-1.15.297-.24.592-.478.878-.723a15 15 0 0 0 1.866-2.182 4 4 0 0 0 .824-1.823.8.8 0 0 0-.274-.696.8.8 0 0 0-.33-.26.17.17 0 0 1-.068-.135.5.5 0 0 1 .067-.224c.161-.414.227-.858.192-1.3.05-1.079.483-1.66 1.19-2.517.235-.314.28-.617.326-.939.03-.201.061-.41.138-.66a2.46 2.46 0 0 1 .746-1.016c.194-.178.367-.361.544-.549.42-.446.855-.908 1.478-1.184q.426-.188.856-.367c.654-.275 1.33-.56 1.923-.893 1.625-.943 2.47-3.16 3.147-4.941l.092-.24a2.6 2.6 0 0 1 .342-.892.21.21 0 0 1 .158-.084h.086a2 2 0 0 0 .803-.213 1 1 0 0 0 .138-.034l.03-.001c.1 0 .16.049.183.118.075.147.12.252.155.36.153.475.47.878.894 1.136a2.5 2.5 0 0 0 1.438.455q.625-.021 1.233-.107l.224.003a7 7 0 0 1 .54.027c.176.012.344.025.5.025.382-.046.781-.096 1.06-.481l.044.01q.03.21.108.408c.031.08.1.14.183.16.14.17.35.268.57.267h.01a.6.6 0 0 0 .36-.098h.002c.013 0 .06-.008.11-.008q.185.023.32.114a.27.27 0 0 0 .166.044 4.2 4.2 0 0 0 1.852-.59c.152-.04.3-.096.436-.168a1 1 0 0 0 .306-.297c.13-.287.338-.53.6-.705q.25-.208.522-.262a.6.6 0 0 1 .135.06c.07.041.154.049.23.02.197-.076.37-.2.504-.364a.6.6 0 0 1 .232-.085c.22.028.44.076.651.142a.3.3 0 0 0 .08.012c.212 0 .335-.137.485-.388.664-1.275 2.815-1.682 3.71-1.799.301-.021.62-.072.927-.122.415-.067.844-.136 1.276-.136h.312q.41-.044.72-.253a.96.96 0 0 1 .596-.268c.03.006.1.03.16.066a.26.26 0 0 0 .323-.039l.03-.026h.408q.306-.012.61-.054a.3.3 0 0 0 .055-.015 3.8 3.8 0 0 1 1.35-.245l1.211.002c.458 0 .892.176 1.22.497a.64.64 0 0 0 .491.231c.168 0 .29-.09.41-.177q.048-.036.105-.076.263-.201.56-.267.323 0 .642-.056.301-.05.58-.175a.26.26 0 0 0 .157-.241v-.104a.21.21 0 0 1 .07-.169.12.12 0 0 1 .087-.038c.29.007.528.082.734.218.264.19.585.297.92.305.235-.005.447-.077.628-.206a.7.7 0 0 0 .198-.28c.017-.06.053-.088.094-.088l.07.014c.04.013.096.032.17.038.132.04.252.098.368.153.172.083.334.16.507.16h.016a.264.264 0 0 0 .23.365l.082.002q.22 0 .428-.066c.22-.066.454-.066.681-.066.25 0 .484 0 .704-.082a.4.4 0 0 0 .11-.024l.048-.025h.042a.26.26 0 0 0 .131-.034.13.13 0 0 1 .065-.018.3.3 0 0 0 .2-.077.5.5 0 0 0 .155-.104 2.5 2.5 0 0 1 1.325-.76c.241-.103.496-.172.756-.205.035.002.08.01.118.03a.3.3 0 0 0 .11.024h.006c.042.073.11.126.192.148.104.026.196.041.282.054.077.012.148.021.218.044.12.061.21.168.248.297a.3.3 0 0 0 .03.065.36.36 0 0 0-.042.17c0 .09.048.175.126.223a.28.28 0 0 1 .134.243c-.028.078-.052.135-.052.209 0 .146.118.264.264.264.042 0 .136-.01.173-.03q.407-.211.744-.521c.101-.046.194-.14.31-.255.063-.08.13-.12.198-.129a.5.5 0 0 0 .113.042.41.41 0 0 1 .227.37.6.6 0 0 1-.11.369 4.7 4.7 0 0 1-.833.882c-.464.398-.67.7-.67.985-.023.574.243 1.083.696 1.368q.348.184.598.45.166.339.217.714c.044.149.057.256.05.365 0 .721-.47 1.54-1.259 2.208a4 4 0 0 1-.493.33 4 4 0 0 0-.438.29c-.272.217-.515.44-.515.778.018.274.107.52.26.728.16.226.364.417.604.564.062.116.206.116.284.116.07 0 .131-.013.19-.025.065-.013.132-.027.227-.027a.264.264 0 0 0 .264-.264v-.156c0-.092.026-.16.04-.174a.2.2 0 0 0 .051-.023.36.36 0 0 1 .203-.063l.086.003.061-.003a.8.8 0 0 1 .25.042c-.005.004.024.047.031.097a.25.25 0 0 1-.078.192.264.264 0 0 0 .184.453c.05.01.1.077.1.154v.207c0 .073.031.144.085.194a.4.4 0 0 1 .1.131.25.25 0 0 0 .09.101.09.09 0 0 1 .037.08.264.264 0 0 0 .264.278h.128c.09 0 .138.01.184.03a.3.3 0 0 0 .102.021l.011.008.065.071.052.053c.282.215.586.344.906.48.24.103.487.208.705.34a2.3 2.3 0 0 0 1.315.403l.382-.001a.3.3 0 0 0 .083-.014 8 8 0 0 1 1.228-.298q.186.016.36.085c.264.105.54.162.807.216.294.06.596.121.906.25.205.103.41.237.61.366.255.166.496.323.751.418.16.054.34.058.53.062.286.007.612.014.884.177.34.308.572.791.601 1.298.07.639.382 1.227.873 1.643.654.53 1.397.598 2.183.67.311.028.632.057.957.116a9 9 0 0 1 3.49 1.416c.145.127.305.28.463.431.547.524 1.065 1.018 1.765 1.018h.104a3.165 3.165 0 0 0 2.698-2.271.3.3 0 0 0 .01-.073v-.156a.2.2 0 0 0-.006-.06 5.5 5.5 0 0 0-.436-1.203 4.3 4.3 0 0 1-.18-1.087c.008-.17.04-.359.093-.54a3.6 3.6 0 0 1 1.247-1.47 3.24 3.24 0 0 1 1.804-.788h.004c.234 0 .448-.114.655-.225.203-.108.412-.22.689-.243a2.5 2.5 0 0 1 .497-.053l.094.002c.074-.002.123-.004.174-.004q.386 0 .758.1c.542.175 1.09.398 1.615.657.19.069.334.155.46.27a.21.21 0 0 1 .071.188l-.002.398c0 .267.222.378.456.496a.3.3 0 0 0 .05.019q.336.09.677.113c.56.1 1.107.268 1.627.498.222.056.403.077.583.077l.112-.003c.126 0 .263-.013.4-.027.122-.012.243-.025.364-.025l.077-.002q.163 0 .32.044a.85.85 0 0 1 .458.334c.034.089.077.16.116.225.034.057.063.105.08.155a.3.3 0 0 0 .038.074v.26c0 .147.013.225.13.342.13.13.27.13.394.13.248.012.495-.03.725-.125.168-.04.38-.072.59-.085.44.039.92.108 1.39.204q1.189.153 2.325.464c.13.03.246.106.326.214.106.126.22.216.347.284a.9.9 0 0 0 .386.086l.077-.003c.075 0 .153-.015.233-.03.05-.01.097-.022.157-.022.132 0 .21.039.257.103a.26.26 0 0 0 .097.08.4.4 0 0 1 .093.062.26.26 0 0 0 .176.068c.088 0 .177.01.27.021.125.015.258.03.407.03.425.053.78.213 1.12.369.287.13.558.253.865.304l.252.004a2.9 2.9 0 0 0 1.693-.804 9 9 0 0 0 .73-.678 1 1 0 0 0 .086.05c.094.092.24.105.35.03a1.3 1.3 0 0 0 .45-.57.5.5 0 0 0 .205.048c.002 0 .05.005.073.005.14 0 .272-.058.41-.12.155-.069.33-.146.53-.146h.154c.108 0 .2-.065.242-.158h.02q.395.032.69.221a1.6 1.6 0 0 0 .616.245c.015.003.082.004.098.004.088 0 .16-.036.26-.086.055-.027.121-.061.187-.083a.3.3 0 0 0 .051-.024.5.5 0 0 1 .235-.067q.077.037.161.05c.12.03.22.11.274.22a2.2 2.2 0 0 0 .312.383q.056.054.132.07c.264.054.508.177.71.355.21.198.492.316.79.326h.113a.3.3 0 0 0 .113-.025q.111-.053.23-.091c.125-.05.243-.078.362-.089a.6.6 0 0 1 .121.049l.028.027c.07.071.175.096.27.064.221-.074.44-.08.652-.086.192-.005.39-.01.586-.067a3.25 3.25 0 0 0 1.214-.602l2.152 5.644c-.316.4-.402.97-.492 1.572-.065.432-.133.878-.28 1.257a2.24 2.24 0 0 0-.173 1.052v.24a1.3 1.3 0 0 1-.215.527c-.129.15-.213.332-.244.527l-.116.082a8 8 0 0 0-.285-.16c-.146-.079-.303-.163-.446-.259a3.3 3.3 0 0 1-.856-.955 3.7 3.7 0 0 0-.697-.653.87.87 0 0 1-.411-.685v-.297c0-.411-.32-.784-.66-1.178-.095-.112-.192-.224-.28-.336a7 7 0 0 1-.893-1.843.264.264 0 0 0-.485-.044c-.11.21-.175.446-.187.684a.66.66 0 0 0 .173.45c.31.388.436.814.56 1.225.098.333.201.676.404.98q.606.987 1.376 1.85c.266.225.496.437.71.658.03.053.069.106.108.158.028.038.06.076.079.115q.014.027.032.05a.42.42 0 0 1 .096.256.24.24 0 0 0-.03.252.4.4 0 0 1 .032.188l-.002.176c0 .125 0 .266.13.396.335.366.597.793.772 1.258.09.257.23.495.41.705 0 .015-.012.037-.011.051a.17.17 0 0 1-.042.126.4.4 0 0 0-.113.25.26.26 0 0 0 .076.21l.003.003c.037.088.102.154.15.203a.7.7 0 0 1 .204.277c.115.232.234.444.354.656.115.205.23.41.332.613.716 1.33 1.45 2.695 2.13 4.107q.462.771 1.006 1.437c.132.242.348.393.558.54.182.126.369.256.52.455l-.06.001q-.186 0-.368-.046a.26.26 0 0 0-.32.188v.003c-.05.195-.07.397-.06.598a2.45 2.45 0 0 0 .35 1.475q.015.028.04.051l.05.052q.016.016.035.028l.052.214c.214.691.628.937 1.152 1.248l.268.161c.338.209.599.514.852.81.224.261.435.508.694.69.28.156.457.4.512.686a3.3 3.3 0 0 0 .114.988c.177.374.384.676.633.943.205.193.344.429.41.684l-.145.019a.264.264 0 0 0-.172.429.3.3 0 0 0 .019.052c.174.357.27.746.286 1.143v.22a2.2 2.2 0 0 0-.052.56c0 .437.063.871.13 1.33.053.36.108.733.13 1.121.025.514.116 1.026.272 1.52.085.465.413.886.87 1.097.33.145.619.37.839.65a6 6 0 0 0 .72.67c.06.048.14.067.215.052.017.156.116.222.27.325a.3.3 0 0 0 .064.031q.212.07.383.212a.3.3 0 0 0 .052.034.2.2 0 0 1 .113.18q0 .06.027.117a22.6 22.6 0 0 1 1.749 4.834c.047.378.139.779.266 1.166a.2.2 0 0 0 .023.05c.218.378.38.784.486 1.209.015.138.108.23.23.354q.046.044.107.092c.102.083.166.139.186.241a.264.264 0 0 0 .523-.049.2.2 0 0 1 .098-.056l.054.005a.44.44 0 0 1 .354.196c.1.097.16.23.163.371.035.4.222.75.513.987a.27.27 0 0 0 .167.059h.104c.096 0 .175-.037.25-.072a.7.7 0 0 1 .32-.085c.127.02.242.083.329.177.12.121.202.22.269.3q.084.102.154.175a.87.87 0 0 0 .58.284c.56.075.834.502 1.1.915l.107.165c.306.492.693.934 1.145 1.306a.3.3 0 0 0 .055.035q.249.117.448.313l.554.393c.247.193.3.49.347.752.02.118.04.23.08.327a.3.3 0 0 0 .05.08.7.7 0 0 0 .257.172.3.3 0 0 0 .07.016.36.36 0 0 1 .242.12c.05.05.103.134.16.223.056.087.118.184.19.28.117.185.275.364.46.515a.264.264 0 0 0 .419-.123.57.57 0 0 1 .27.381l-.005.058q0 .08.045.147.057.086.146.204c.099.135.217.298.315.461q.332.434.38.93a.7.7 0 0 1-.1.326 3.9 3.9 0 0 1-1.385.803.3.3 0 0 0-.052.023 1.15 1.15 0 0 0-.405.405.263.263 0 0 0 .313.383c.215-.074.44-.122.665-.142h.008a.2.2 0 0 1 .106.023.56.56 0 0 1 .214.172q.044.05.086.093a.3.3 0 0 0 .06.044c.572.318.96.928 1.335 1.518.19.298.37.58.568.815a2.53 2.53 0 0 0 2.01.978c.35 0 .7-.058 1.033-.17.5-.241.951-.512 1.371-.817.247-.238.535-.358.84-.366.227.014.476.048.72.099a4.4 4.4 0 0 0 1.032.16c.35-.008.69-.112.985-.3a6 6 0 0 1 .732-.576c.27-.239.566-.376.884-.42.063.02.11.035.154.043.251.095.514.149.78.162a2.1 2.1 0 0 0 .797-.18 5 5 0 0 1 1.051-.4.5.5 0 0 1 .195-.047c.212.003.351.04.498.08.14.04.283.079.438.079h.103a4.4 4.4 0 0 0 1.648-.612c.254-.093.564-.131.863-.167.35-.043.68-.084.988-.238a1.7 1.7 0 0 0 .538-.645 1.33 1.33 0 0 1 .474-.512.32.32 0 0 1 .192-.07c.015.003.09.007.09.007.281-.004.56.058.813.18.262.16.425.295.425.492v.113c-.152.465-.24.948-.26 1.437q-.01.328.058.64c.06.289.092.588.098.885l-.003.062a.4.4 0 0 0-.076.058c-.134.11-.18.23-.18.447v.884a5.1 5.1 0 0 1-.149 1.497 7 7 0 0 1-.943 1.674c-.217.297-.305.655-.4 1.035-.107.433-.218.88-.527 1.24-.122.122-.227.205-.314.275a1.6 1.6 0 0 0-.32.312c-.132.174-.132.377-.132.574 0 .156 0 .317-.06.48-.355.72-.763 1.415-1.22 2.076-.29.546-.424 1.095-.567 1.677-.107.44-.218.894-.397 1.34q-.711 1.44-1.635 2.755c-.257.373-.473.786-.682 1.185-.27.517-.55 1.052-.92 1.506-.717.922-1.444 1.805-2.146 2.66l-.037.044a21.5 21.5 0 0 1-4.936 4.473c-.84.491-1.62 1.077-2.326 1.746q-.336.335-.682.665c-.583.562-1.187 1.143-1.682 1.752-.339.417-.69.834-1.042 1.25-.35.417-.7.833-1.039 1.248-.21.246-.426.544-.634.833q-.154.216-.31.424a6 6 0 0 1-.597.698c-.046.054-.084.077-.124.085a.26.26 0 0 0-.21.207 4.14 4.14 0 0 1-1.027 2.005.3.3 0 0 0-.042.062l-.156.312a1.66 1.66 0 0 1-1.06.682.7.7 0 0 0-.213-.047.264.264 0 0 0-.264.263.6.6 0 0 0 .023.16 1 1 0 0 1 .082.327.45.45 0 0 1-.1.286l-.113.112a.26.26 0 0 0-.272.126.9.9 0 0 1-.724.443.91.91 0 0 0-.872.944v.011a.9.9 0 0 0 .072.4.3.3 0 0 0 .03.053 1.13 1.13 0 0 1-.209.573c-.09.2-.22.382-.38.533a.3.3 0 0 0-.038.042c-.164.232-.283.49-.352.765a5.3 5.3 0 0 1-.346.938.7.7 0 0 1-.194.277.27.27 0 0 0-.093.2c-.025.42-.216.737-.4 1.043-.142.236-.277.459-.318.696a.3.3 0 0 0-.11-.025c-.162 0-.27.11-.343.182a.26.26 0 0 0-.077.186v.104a8.1 8.1 0 0 1-.653 2.179 9 9 0 0 0-.427 1.07c-.06.15-.1.321-.113.496-.037.135.02.262.066.367a.8.8 0 0 1 .086.31v.208a.66.66 0 0 0 .178.425.264.264 0 0 0 .464-.144.54.54 0 0 1 .13-.311c.06-.086.096-.134.127-.174q.07-.087.112-.166c.162.3.245.642.238.99a.264.264 0 0 0 .188.257.26.26 0 0 1 .153.128.6.6 0 0 1 .024.227.9.9 0 0 1-.04.348.26.26 0 0 0 .09.294l.034.03q.06.169.072.35a1.16 1.16 0 0 1-.214.665c-.194.29-.3.629-.307.977.005.185-.01.356-.046.523a.264.264 0 0 0 .25.319c-.02.004-.002.044.01.07q.058.164.046.327c-.003.17-.033.34-.09.501a2.8 2.8 0 0 0-.274 1.118v.165q.025.345.198.611.151.21.166.448v.032a.26.26 0 0 0-.024.276q.036.07.08.135v-.002a.3.3 0 0 0 .02.068q.03.065.028.138a.265.265 0 0 0 .3.272c.078.007.125.07.12.12a1.1 1.1 0 0 1-.127.481.3.3 0 0 0-.033.127c0 .18.031.296.182.447.063.086.13.203.182.33v.055a.5.5 0 0 1-.033.215.3.3 0 0 0-.018.097c0 .066.024.181.068.23.058.063.09.146.088.232v.11c0 .103.06.197.154.24a.5.5 0 0 1 .204.17l.033.046a.6.6 0 0 0 .102.147.26.26 0 0 0 .186.077h.104a.77.77 0 0 1 .54.233.92.92 0 0 1 .343.623c0 .129.092.264.22.285a.294.294 0 0 1 .247.301.5.5 0 0 1-.066.186.26.26 0 0 0 .046.331 1.2 1.2 0 0 0-.136.529q.014.29-.085.53a.6.6 0 0 1-.15.225c-.124.076-.182.172-.182.291q.001.088.054.16c.134.177.208.397.207.62.04.28.055.529.051.777q0 .033.008.065.06.246.045.496v.275q-.012.112-.037.22l-.04.079a.27.27 0 0 0-.026.147q.01.1.05.189v.146a.44.44 0 0 1-.03.208.3.3 0 0 0-.02.104c0 .19.04.254.13.343q.059.083.098.177.039.09.031.189c0 .201-.044.4-.13.582-.049.1-.028.22.051.3l.104.104a.3.3 0 0 1 .028.153q-.045.345-.146.677a3 3 0 0 0-.114.511.26.26 0 0 0 .071.215q.1.106.158.237c.022.09.037.218.03.348 0 .221-.029.461-.056.693a5 5 0 0 0-.049.569c0 .146.12.264.264.264a1 1 0 0 1-.084.356.263.263 0 0 0 .162.36.26.26 0 0 1 .18.257v.137a3 3 0 0 0-.05.31c-.014.093-.024.187-.048.28-.015.135-.058.222-.129.286a.26.26 0 0 0-.08.257l-.04.1a.3.3 0 0 0-.019.098v.104a.13.13 0 0 1-.034.083l-.096.095a.26.26 0 0 0-.032.335 2.7 2.7 0 0 1-.275.769c-.172.318-.4.554-.623.782-.223.23-.434.447-.576.732a7 7 0 0 1-.64.883.3.3 0 0 0-.05.087q-.038.12-.059.246a1 1 0 0 1-.032.136l-.007.02-.044-.008-.025-.001a.26.26 0 0 0-.196.087c-.235.262-.523.47-.846.611-.35.178-.672.405-.959.673l-.058.058a.26.26 0 0 0-.077.186c0 .059-.012.077-.029.086a.3.3 0 0 0-.05.04.35.35 0 0 0-.153.058q-.201.076-.408.135a7 7 0 0 0-.808.27q-.372.211-.773.361a1 1 0 0 1-.226.034.2.2 0 0 0-.057-.006c-.12 0-.213.07-.332.19a5.7 5.7 0 0 1-1.468.824.3.3 0 0 0-.093.06 6 6 0 0 1-.189.17c-.14.127-.324.29-.487.453a1.8 1.8 0 0 1-.728.457.265.265 0 0 0-.136.4l.005.059c0 .33-.288.568-.593.821l-.146.122c-.462.396-.769.732-.769 1.086v.104l.016.083-.025.033a.27.27 0 0 0-.21.012l-.207.104a.3.3 0 0 0-.08.062c-.008 0-.05.014-.057.014a.28.28 0 0 0-.216-.103.26.26 0 0 0-.147.046 7.3 7.3 0 0 0-1.187 1.025 9.4 9.4 0 0 1-1.137 1.344.3.3 0 0 0-.035.042 1.3 1.3 0 0 1-.344.344.97.97 0 0 1-.557.269l-.076-.002a.264.264 0 0 0-.242.368q.038.091.031.188a.74.74 0 0 1-.077.318.4.4 0 0 1-.099.132.264.264 0 0 0-.055.318.2.2 0 0 1 .023.113v.388c0 .215.03.317.126.425.053.1.132.168.225.246.085.072.181.153.278.274.22.272.328.615.307.964v.068l-.012.092a4 4 0 0 0-.04.48q0 .092.058.164a.7.7 0 0 0-.006.172c0 .225.085.495.175.78.082.258.166.524.19.78-.002.077.013.186.03.298.012.074.055.14.117.18a2 2 0 0 1-.043.255.3.3 0 0 0-.006.07l.004.059a.27.27 0 0 0 .268.26.26.26 0 0 0 .15-.046v.2q.002.111.073.185-.032.196-.07.392c-.04.214-.08.427-.106.64l-.003.084c0 .16.052.306.102.447.052.148.107.303.107.49v.104c-.053.325-.196.705-.336 1.073a8 8 0 0 0-.28.84.26.26 0 0 0 .031.204l.26.416a.73.73 0 0 1 .116.385c0 .627-.589 1.314-.872 1.644a5.6 5.6 0 0 1-2.568 1.425c-1.084.33-2.122.795-3.09 1.382-.45.182-.854.525-1.129.972a3.7 3.7 0 0 1-.312.622.4.4 0 0 1-.16.169.262.262 0 0 0-.063.42l.47.467a.263.263 0 0 0 .36.012l.03.01c0 .12.01.27.022.44.014.2.03.426.03.652a3 3 0 0 1-.096.66c-.05.148-.118.224-.14.235a.3.3 0 0 0-.173.187 54 54 0 0 1-.692 2.53c-.114.393-.23.792-.347 1.208a6.5 6.5 0 0 1-.45 1.256 1.26 1.26 0 0 1-.824.746.26.26 0 0 0-.192.248c-.04.04-.066.052-.093.058a1 1 0 0 1-.305.048c-.293 0-.645.438-.746.573a7.2 7.2 0 0 0-1.386 2.192c-.193.406-.44.784-.734 1.124a.4.4 0 0 0-.033.046c-.355.608-.721 1.237-1.131 1.852a13.7 13.7 0 0 1-2.546 2.592c-.41.328-.721.73-1.053 1.154-.323.412-.657.839-1.084 1.192-1.044.886-2.09 1.774-3.165 2.595l-.248.186c-.765.582-1.635 1.242-2.644 1.374l-.175-.002c-.203 0-.381-.027-.554-.054a3 3 0 0 0-.486-.05h-.003a.9.9 0 0 0-.323.058.7.7 0 0 0-.446.243.2.2 0 0 0-.035.053l-.104.208a.26.26 0 0 0 .05.305l.093.095a.3.3 0 0 1-.12.029 2.6 2.6 0 0 1-.622-.165c-.217-.076-.423-.15-.623-.15h-.015a.76.76 0 0 0-.368.083q-.21.12-.404.262c-.237.168-.393.28-.67.28a2.3 2.3 0 0 1-.69-.14 5.5 5.5 0 0 0-1.63-.38 2.5 2.5 0 0 0-.725.116.7.7 0 0 0-.27.177.2.2 0 0 0-.035.047.2.2 0 0 1-.084.023 1 1 0 0 1-.256-.08 1.3 1.3 0 0 0-.607-.073.7.7 0 0 1-.243-.038.3.3 0 0 0-.09-.016h-.365c-.803 0-1.528.337-2.022.926a.71.71 0 0 1-.696.324 9 9 0 0 1-.865-.06q-.315-.037-.63-.046-.166.02-.328.061a.3.3 0 0 0-.05.019 1.3 1.3 0 0 1-.525.121c-.137.01-.279.02-.412.087a4.5 4.5 0 0 0-1.084.755 1.7 1.7 0 0 0-.285.232.12.12 0 0 1-.063.024z" class="st0"/><path d="m238.98 67.436.01.002q.044.02.092.031a.5.5 0 0 0 .262.158c.114.029.214.045.307.058q.075.01.148.027a.23.23 0 0 1 .104.126.57.57 0 0 0 .225.622.7.7 0 0 0-.039.216c0 .291.236.528.528.528h.052c.084 0 .168-.02.243-.06q.422-.218.773-.535a1.7 1.7 0 0 0 .369-.315h.001a.16.16 0 0 1 .063.134.34.34 0 0 1-.055.198q-.346.475-.801.846c-.374.32-.756.712-.756 1.18v.03c-.027.643.3 1.25.853 1.581q.27.144.485.36.132.285.175.598.005.045.02.09a.6.6 0 0 1 .028.224v.032c0 .627-.437 1.372-1.163 1.987-.138.115-.296.209-.462.308a4 4 0 0 0-.467.31c-.244.195-.614.49-.614.984.014.316.12.621.305.877.172.242.392.451.641.612.16.183.384.183.466.183.097 0 .178-.017.244-.03.058-.012.105-.022.172-.022a.53.53 0 0 0 .528-.527V78.1a.1.1 0 0 1 .037-.005h.004l.055.003h.006a.528.528 0 0 0 .3.755v.123c0 .147.06.288.17.387a.2.2 0 0 1 .04.055.5.5 0 0 0 .106.144.53.53 0 0 0 .523.461h.104l.05-.002q.03 0 .054.01.037.017.077.028l.019.018.052.052.056.049c.28.21.612.351.933.488.226.097.46.197.66.315.452.306.988.463 1.532.447h.313a.5.5 0 0 0 .165-.027 7.5 7.5 0 0 1 1.155-.282q.131.015.253.063c.287.115.575.173.854.23.287.059.56.114.838.229.204.102.397.228.584.35.268.174.522.338.822.45.188.064.387.068.597.072.25.006.51.013.715.118.314.298.499.707.516 1.14.081.704.429 1.35.972 1.805.712.579 1.53.653 2.321.724.305.028.62.057.936.114a8.8 8.8 0 0 1 3.361 1.358c.155.133.307.279.454.42.561.536 1.141 1.092 1.948 1.092h.104l.063-.004a3.42 3.42 0 0 0 2.89-2.459.5.5 0 0 0 .02-.146v-.156a.5.5 0 0 0-.015-.121 5.8 5.8 0 0 0-.438-1.22 4 4 0 0 1-.17-.997q.012-.226.071-.444a3.36 3.36 0 0 1 1.154-1.36l.048-.037a2.93 2.93 0 0 1 1.611-.704c.313-.008.56-.14.778-.257.196-.104.364-.194.587-.212l.064-.01q.256-.054.516-.04l.027-.001c.273-.014.548.014.813.083.54.176 1.071.392 1.58.643q.029.015.059.025.181.064.325.191l-.002.04v.363c0 .43.349.605.603.733a.5.5 0 0 0 .098.036 3.6 3.6 0 0 0 .699.12c.54.097 1.067.258 1.568.479q.045.02.095.031.34.078.69.066c.157 0 .302-.015.443-.03.12-.01.234-.022.338-.022l.028-.001.049-.002q.128 0 .241.033a.6.6 0 0 1 .304.21c.04.095.086.172.122.232a.7.7 0 0 1 .08.165v.188c0 .21.034.355.207.528.2.2.425.207.567.208.273.013.545-.03.8-.129q.251-.06.51-.079.704.06 1.395.203 1.146.146 2.283.458a.3.3 0 0 1 .168.111c.13.16.292.289.476.38.17.074.356.107.54.095.122-.001.22-.02.293-.035a1 1 0 0 1 .104-.016l.046-.003c.052.068.12.124.197.16q.015.007.028.019a.53.53 0 0 0 .353.136q.101.002.239.02c.118.014.25.03.404.032.402.051.715.194 1.046.344.29.132.589.268.93.325l.087.007h.208l.064-.004a3.15 3.15 0 0 0 1.797-.86 9 9 0 0 0 .603-.547c.176.09.387.075.548-.04.178-.127.326-.289.436-.475l.057.003.082.004c.197 0 .36-.072.517-.142.144-.063.278-.124.422-.124h.156a.53.53 0 0 0 .364-.146c.158.026.31.083.435.161q.332.22.723.29.045.007.09.007h.052c.151 0 .267-.058.38-.114.045-.022.097-.05.151-.068a.5.5 0 0 0 .101-.047.3.3 0 0 1 .057-.024 1 1 0 0 0 .153.038q.062.021.091.08.015.03.034.058.145.215.33.396a.54.54 0 0 0 .263.14c.218.043.42.145.576.283.269.25.62.394.986.403h.104a.5.5 0 0 0 .227-.052 2 2 0 0 1 .228-.09q.106-.041.22-.058a.53.53 0 0 0 .532.12c.185-.06.375-.066.577-.072.208-.006.423-.011.634-.072a3.5 3.5 0 0 0 1.034-.447l1.978 5.189c-.282.425-.366.985-.455 1.575-.063.417-.128.849-.257 1.182a2.5 2.5 0 0 0-.199 1.164v.203a1 1 0 0 1-.153.395q-.162.192-.244.428l-.072-.039a6 6 0 0 1-.417-.241 3 3 0 0 1-.786-.877 1 1 0 0 0-.053-.074 4 4 0 0 0-.743-.676.6.6 0 0 1-.275-.456v-.294c0-.51-.368-.937-.724-1.35a10 10 0 0 1-.262-.314 6.8 6.8 0 0 1-.86-1.773.528.528 0 0 0-.968-.087c-.135.256-.21.539-.218.828a.92.92 0 0 0 .228.59c.283.359.397.738.516 1.14.105.35.213.714.427 1.033a13 13 0 0 0 1.408 1.896l.058.056q.334.277.639.589.056.088.107.153.032.039.054.075a.5.5 0 0 0 .064.099q.015.018.024.039a.53.53 0 0 0 .004.408q.012.03.01.063l-.001.04v.156c0 .14 0 .375.191.566.314.34.56.738.723 1.172q.132.367.367.674a.7.7 0 0 0-.134.348c-.014.14.03.28.12.387.057.113.139.194.188.244l.03.027q.075.066.113.158l.018.041c.11.22.232.437.35.648.113.2.226.4.334.615.713 1.325 1.45 2.694 2.122 4.09l.022.041q.45.75 1.001 1.428c.152.266.377.434.585.579a.53.53 0 0 0-.292.35 2.3 2.3 0 0 0-.068.639c-.043.575.09 1.14.388 1.634a.5.5 0 0 0 .08.102l.034.035.034.136.008.027c.238.776.714 1.058 1.264 1.385q.125.073.264.158c.304.187.551.477.791.757.224.262.456.533.744.735l.047.03a.7.7 0 0 1 .35.463c-.01.349.033.697.125 1.034q.014.048.034.093c.177.36.408.693.685.985q.136.129.224.291a.53.53 0 0 0-.2.756l.02.047a2.6 2.6 0 0 1 .26 1.018v.202a2.4 2.4 0 0 0-.053.58c0 .466.067.929.133 1.377.052.355.105.722.127 1.093.026.53.118 1.055.275 1.561.12.569.501 1.047 1.03 1.29.286.126.538.321.731.569q.353.39.767.715a.5.5 0 0 0 .184.093c.076.135.201.218.316.295q.06.04.128.062a.9.9 0 0 1 .296.164l.072.05a.5.5 0 0 0 .053.196 22.4 22.4 0 0 1 1.722 4.752c.056.411.149.819.279 1.213a.5.5 0 0 0 .045.1c.203.352.357.73.455 1.125.031.219.175.363.304.492q.054.052.126.11c.031.026.084.068.094.088a.528.528 0 0 0 .992.128.2.2 0 0 1 .076.063q.025.039.058.072c.039.04.06.095.06.151.029.465.25.898.611 1.193a.53.53 0 0 0 .333.118h.104c.155 0 .274-.056.362-.096a.5.5 0 0 1 .181-.058.32.32 0 0 1 .177.103c.104.105.179.196.246.276q.086.105.158.182c.194.211.455.343.74.37.416.06.624.342.917.797.037.057.073.114.1.153.325.524.73.987 1.206 1.378q.05.042.11.07.21.098.374.262.031.03.068.058l.508.355c.16.13.203.318.251.59.024.132.046.256.095.38q.036.09.103.161c.099.107.224.19.36.24a.6.6 0 0 0 .14.031.1.1 0 0 1 .064.033l.02.022c.023.024.076.107.115.168.056.087.118.184.19.28q.214.33.517.577a.53.53 0 0 0 .583.056l.003.01v.046c0 .104.03.205.088.292.04.06.094.134.154.216.1.137.213.29.3.44l.038.053c.166.213.27.465.303.733a.5.5 0 0 1-.044.17 3.6 3.6 0 0 1-1.256.716.5.5 0 0 0-.104.047c-.205.12-.377.293-.498.498a.528.528 0 0 0 .627.766c.19-.066.389-.11.585-.127l.04.017c.022.018.059.06.084.088q.05.056.098.105a.5.5 0 0 0 .117.09c.513.283.883.865 1.24 1.427.196.306.38.596.576.827a2.8 2.8 0 0 0 2.239 1.088 3.5 3.5 0 0 0 1.104-.184l.06-.025a9 9 0 0 0 1.38-.828l.06-.049a.94.94 0 0 1 .613-.266q.334.022.662.09.557.153 1.132.17c.39-.014.77-.133 1.1-.344a1 1 0 0 0 .072-.056c.206-.19.43-.366.663-.52l.06-.048c.185-.167.413-.28.658-.323q.045.016.104.028c.277.102.568.16.863.17h.016c.312-.01.618-.083.9-.214a5 5 0 0 1 .985-.375l.076-.026a.14.14 0 0 1 .063-.01l.04.001c.126 0 .243.032.377.07.149.04.317.086.508.086h.104q.045 0 .09-.008a4.7 4.7 0 0 0 1.65-.615c.256-.09.522-.124.803-.158.357-.044.726-.089 1.074-.263a.5.5 0 0 0 .087-.055c.24-.184.432-.423.562-.696a1.1 1.1 0 0 1 .385-.42c.01-.006.047-.02.058-.028l.087.006h.028c.222 0 .446.05.647.145.097.06.295.183.295.264v.072c-.152.477-.24.971-.26 1.471-.007.236.014.472.064.696.052.255.082.516.09.768-.18.154-.258.345-.258.634l.001.91a4.8 4.8 0 0 1-.133 1.375 6.8 6.8 0 0 1-.911 1.62c-.244.334-.343.735-.44 1.123-.102.414-.2.807-.458 1.117a4 4 0 0 1-.29.254c-.12.096-.244.195-.368.36-.184.245-.184.515-.184.733 0 .136 0 .254-.037.367a16 16 0 0 1-1.195 2.038l-.033.053c-.29.55-.435 1.14-.575 1.712-.103.424-.21.863-.377 1.286a20.6 20.6 0 0 1-1.617 2.725c-.264.383-.484.803-.697 1.208-.265.507-.538 1.03-.898 1.472-.724.93-1.461 1.826-2.18 2.698a21.2 21.2 0 0 1-4.861 4.41 13 13 0 0 0-2.384 1.791q-.331.33-.676.66c-.589.566-1.197 1.152-1.701 1.773-.336.414-.686.828-1.035 1.242-.353.418-.706.837-1.037 1.245-.223.26-.441.563-.652.855q-.152.213-.311.427a5.4 5.4 0 0 1-.588.682.53.53 0 0 0-.387.408 3.9 3.9 0 0 1-.962 1.878.6.6 0 0 0-.085.123l-.14.28c-.197.282-.49.481-.825.56a.8.8 0 0 0-.227-.04.53.53 0 0 0-.528.528v.052q0 .113.046.216.045.103.058.213 0 .06-.03.111l-.03.03a.53.53 0 0 0-.387.255.63.63 0 0 1-.534.314c-.31.017-.6.157-.805.39a1.16 1.16 0 0 0-.296.807 1.2 1.2 0 0 0 .096.526v.001a.85.85 0 0 1-.15.365.5.5 0 0 0-.053.09q-.106.231-.294.404a.5.5 0 0 0-.073.083 2.5 2.5 0 0 0-.392.847 5 5 0 0 1-.33.894l-.015.034a.4.4 0 0 1-.112.16.53.53 0 0 0-.185.4v.032c-.026.314-.197.598-.363.873a3.5 3.5 0 0 0-.288.55c-.222.031-.369.177-.443.252a.53.53 0 0 0-.154.373v.066a7.8 7.8 0 0 1-.625 2.1 9 9 0 0 0-.437 1.09 2 2 0 0 0-.129.55c-.047.214.037.405.086.517a.6.6 0 0 1 .064.203v.208c0 .31.18.524.24.594a.528.528 0 0 0 .928-.289.3.3 0 0 1 .036-.12q.048.21.045.43a.52.52 0 0 0 .36.507q.008.045.005.09v.078a.5.5 0 0 1-.025.205.52.52 0 0 0 .144.558q.03.098.036.2a.9.9 0 0 1-.172.525 2.1 2.1 0 0 0-.348 1.141q.007.225-.04.443a.53.53 0 0 0 .288.588.7.7 0 0 1 .012.188q-.004.196-.066.384a3.1 3.1 0 0 0-.298 1.24v.157c.012.28.102.548.258.78a.6.6 0 0 1 .102.248.53.53 0 0 0 .007.457c.023.043.044.08.07.124q.012.046.032.088a.494.494 0 0 0 .402.54.7.7 0 0 1-.077.214.5.5 0 0 0-.066.254v.052c0 .144.027.334.229.55q.079.11.136.232v.023a.2.2 0 0 1-.016.094.5.5 0 0 0-.037.194v.052c0 .132.05.26.14.357q.016.017.016.06V212c0 .207.121.395.31.48a.25.25 0 0 1 .097.081l.021.028a.8.8 0 0 0 .142.2c.1.1.234.155.374.155h.096a.5.5 0 0 1 .36.154l.04.036a.64.64 0 0 1 .225.405v.022c0 .259.188.48.444.52a.03.03 0 0 1 .024.022.2.2 0 0 1-.027.068.53.53 0 0 0-.03.49 1.5 1.5 0 0 0-.098.543.9.9 0 0 1-.065.394l-.013.033a.3.3 0 0 1-.058.084.58.58 0 0 0-.281.499c0 .115.038.227.107.319.1.13.154.294.153.458q0 .04.006.081.052.346.046.694 0 .068.015.133.054.222.037.448v.237a1 1 0 0 1-.024.154l-.024.05a.53.53 0 0 0-.053.296 1 1 0 0 0 .049.207v.096q0 .022.002.04a.13.13 0 0 1-.011.064.5.5 0 0 0-.043.208v.053a.6.6 0 0 0 .18.45.6.6 0 0 1 .07.122q.014.03.011.063a1.1 1.1 0 0 1-.106.49.53.53 0 0 0 .104.6l.054.055q-.042.31-.132.608a3.3 3.3 0 0 0-.125.562.53.53 0 0 0 .142.43.6.6 0 0 1 .092.13q.034.141.022.287c0 .192-.027.424-.054.649q-.041.3-.05.6c0 .18.092.34.231.436l-.029.077a.54.54 0 0 0 .318.736v.096a3 3 0 0 0-.047.306c-.012.09-.023.177-.04.25l-.015.08a.1.1 0 0 1-.037.073.53.53 0 0 0-.172.417l-.015.038a.5.5 0 0 0-.038.196v.04l-.054.055a.53.53 0 0 0-.116.57 3 3 0 0 1-.235.593c-.155.289-.362.501-.58.726-.223.229-.453.465-.613.776q-.276.45-.617.852a.5.5 0 0 0-.099.174 2 2 0 0 0-.058.232.53.53 0 0 0-.25.156 2.2 2.2 0 0 1-.755.545l-.031.014c-.37.192-.712.434-1.015.72l-.053.053a.53.53 0 0 0-.144.27 1 1 0 0 0-.098.05 4 4 0 0 1-.352.114q-.431.114-.844.282l-.063.03a5 5 0 0 1-.68.32 1 1 0 0 1-.14.024l-.073-.005c-.218 0-.37.121-.495.243a5.4 5.4 0 0 1-1.4.788.5.5 0 0 0-.184.12c-.036.036-.1.092-.178.162-.139.124-.329.293-.505.47a1.5 1.5 0 0 1-.616.384.528.528 0 0 0-.313.729c-.013.184-.207.359-.499.6l-.149.125c-.407.349-.84.76-.86 1.252l-.073.03-.206.103a.53.53 0 0 0-.534.039 7.6 7.6 0 0 0-1.23 1.062l-.048.06q-.478.688-1.08 1.275a.5.5 0 0 0-.069.083 1 1 0 0 1-.273.272l-.068.056a.64.64 0 0 1-.346.167h-.072a.528.528 0 0 0-.484.736q.014.03.01.064v.027a.5.5 0 0 1-.05.194.2.2 0 0 1-.04.055.53.53 0 0 0-.118.619l-.001.03v.363c0 .229.03.407.178.583.072.125.171.209.268.29.08.067.16.136.243.238.177.22.265.499.248.782v.067l-.011.077c-.016.136-.042.34-.042.512q0 .12.05.227a1 1 0 0 0 .002.108c.005.283.094.565.19.863.074.237.151.481.175.704.002.116.017.23.035.335a.5.5 0 0 0 .097.232l-.02.103a.5.5 0 0 0-.009.186c0 .252.18.468.426.517a.6.6 0 0 0 .05.144l-.05.282c-.04.212-.082.432-.11.656l-.004.065v.053c0 .205.062.38.116.533.05.14.093.26.093.403v.06c-.056.328-.19.68-.318 1.024q-.17.426-.29.869a.53.53 0 0 0 .064.407l.261.42a.47.47 0 0 1 .074.237c0 .523-.526 1.148-.794 1.46a5.33 5.33 0 0 1-2.474 1.365c-1.087.333-2.13.798-3.103 1.386a2.7 2.7 0 0 0-1.25 1.079.5.5 0 0 0-.043.09q-.113.297-.285.563a.1.1 0 0 1-.042.042.528.528 0 0 0-.126.84l.105.103.364.364a.53.53 0 0 0 .327.153l.01.14c.013.198.028.42.028.623a2.5 2.5 0 0 1-.082.587 1 1 0 0 1-.044.099.53.53 0 0 0-.275.347c-.21.875-.443 1.674-.689 2.519-.115.394-.23.793-.35 1.223a6.2 6.2 0 0 1-.445 1.228.99.99 0 0 1-.646.577.53.53 0 0 0-.349.323.7.7 0 0 1-.18.02h-.002c-.35 0-.693.353-.926.658a7.6 7.6 0 0 0-1.43 2.258 4.8 4.8 0 0 1-.696 1.065.5.5 0 0 0-.057.079c-.352.603-.715 1.226-1.12 1.834a13.5 13.5 0 0 1-2.5 2.546c-.43.345-.768.777-1.095 1.195-.313.4-.637.816-1.05 1.158-1.018.864-2.07 1.758-3.147 2.58l-.25.188c-.73.556-1.559 1.185-2.487 1.319h-.172c-.183 0-.344-.026-.515-.052-.166-.026-.338-.053-.501-.053h-.047a1.1 1.1 0 0 0-.372.065.98.98 0 0 0-.58.328.6.6 0 0 0-.07.107l-.104.208a.5.5 0 0 0-.055.208l-.219-.074c-.221-.08-.45-.16-.688-.166a1 1 0 0 0-.54.119c-.169.094-.304.19-.423.275-.24.17-.334.23-.495.23a2 2 0 0 1-.605-.117 5.8 5.8 0 0 0-1.77-.403q-.407.01-.794.137a.9.9 0 0 0-.33.208 1 1 0 0 1-.104-.038 1.6 1.6 0 0 0-.744-.097.4.4 0 0 1-.123-.02.5.5 0 0 0-.182-.034h-.397c-.847 0-1.646.372-2.19 1.02l-.037.048a.43.43 0 0 1-.42.187l-.077-.006c-.256 0-.533-.03-.8-.056a7 7 0 0 0-.656-.048l-.073.005a3 3 0 0 0-.321.064.5.5 0 0 0-.103.039c-.15.075-.277.084-.426.094-.154.01-.33.024-.508.113a4.7 4.7 0 0 0-1.133.784q-.127.084-.24.188a1 1 0 0 1-.174-.053.5.5 0 0 0-.196-.038h-.23a.3.3 0 0 1-.095-.03 1.9 1.9 0 0 0-.459-.374.53.53 0 0 0-.144-.482l-.052-.052a.5.5 0 0 0-.199-.125 4 4 0 0 0-.45-.126 6 6 0 0 0-.447-.053 1 1 0 0 0 .003-.103c0-.471-.317-.788-.788-.788h-.104l-.077.006c.049-.146.084-.281.084-.415v-.103l-.003-.06a2.4 2.4 0 0 0-.416-1.09q-.3-.397-.555-.826l-.014-.036v-.017a.53.53 0 0 0-.113-.325.52.52 0 0 0-.334-.236 3 3 0 0 1 .048-.2q.14.04.287.04c.508 0 .688-.36.784-.552a.5.5 0 0 0 .038-.1 3.6 3.6 0 0 0 .122-.864v-.115a5.67 5.67 0 0 0-.915-2.978 18.6 18.6 0 0 1-2.02-4.283 27 27 0 0 1-.191-.726c-.129-.504-.262-1.024-.443-1.495-.104-.285-.27-.547-.447-.826-.22-.346-.446-.704-.52-1.074a.53.53 0 0 0-.486-.423.1.1 0 0 1-.07-.04 8 8 0 0 0-.66-.71c-.294-.291-.6-.593-.836-.936a15 15 0 0 1-.953-1.705 2.2 2.2 0 0 1-.211-.843l-.01-.077q-.061-.263-.206-.49c-.067-.115-.125-.214-.169-.388a.8.8 0 0 1-.03-.267v-.24a1.24 1.24 0 0 0-.322-.923.3.3 0 0 1-.043-.137v-.365c0-.26-.057-.502-.111-.737a4 4 0 0 1-.104-.546 5 5 0 0 1-.045-.402 5 5 0 0 0-.062-.5l-.022-.077a.4.4 0 0 1-.021-.147q.002-.194.026-.385c.013-.124.027-.253.027-.38v-.155a.5.5 0 0 0-.015-.124 11.6 11.6 0 0 0-.745-2.142 3.4 3.4 0 0 1-.124-.856v-1.248l-.005-.071a11 11 0 0 1-.1-1.23v-.22l.044-.197c.053-.24.125-.566.16-.808l.005-.075v-.313l-.001-.03a3.74 3.74 0 0 0-.83-2.156q-.119-.174-.243-.342a7 7 0 0 1-.4-.594 2.7 2.7 0 0 1-.187-.438c-.068-.19-.14-.385-.271-.561-.633-.814-.963-1.7-1.313-2.637-.21-.564-.429-1.15-.716-1.704-.236-.455-.422-.966-.601-1.461-.369-1.017-.75-2.068-1.604-2.805-.844-.73-1.222-1.746-1.222-3.294 0-.104.012-.218.024-.338.014-.14.029-.286.029-.443v-.208c0-.473.052-.964.103-1.44.051-.483.105-.984.105-1.473 0-.137-.016-.265-.03-.378a2 2 0 0 1-.022-.247.5.5 0 0 0-.037-.192 1 1 0 0 1-.063-.258c.08-.127.184-.238.277-.336.131-.138.255-.27.316-.451a2 2 0 0 0 .08-.444c.01-.093.02-.195.04-.296l.01-.068a.25.25 0 0 1 .05-.133.5.5 0 0 0 .051-.083l.104-.208a.53.53 0 0 0 .003-.466v-.03c0-.255.17-.702.292-1.028.105-.28.195-.52.222-.706.039-.23.046-.461.054-.685.014-.416.027-.81.246-1.166.18-.312.257-.672.22-1.03a.43.43 0 0 1 .108-.364c.385-.35.713-.757.973-1.207l.038-.08q.156-.42.269-.855a.52.52 0 0 1 .41-.31c.446-.008.648-.176.826-.444a.5.5 0 0 0 .045-.081 6 6 0 0 1 .293-.586 6.2 6.2 0 0 0 .739-3.104 5.4 5.4 0 0 0-.17-1.432 4.6 4.6 0 0 0-.737-1.606 6.7 6.7 0 0 1-.513-1.415 1.4 1.4 0 0 0-.207-.42c-.061-.096-.115-.18-.139-.265a2.8 2.8 0 0 0-.132-1.013l-.03-.074-.156-.313a.5.5 0 0 0-.064-.098l-.022-.068a1 1 0 0 1-.066-.274.24.24 0 0 1 .146-.19.5.5 0 0 0 .167-.114l.129-.128a3 3 0 0 1 .16-.11c.234-.072.385-.28.385-.55v-.374a3.45 3.45 0 0 0-.48-1.7 10.4 10.4 0 0 1-.854-2.066c-.062-.165-.079-.328-.098-.5a2.2 2.2 0 0 0-.1-.517c-.102-.364-.337-.64-.565-.906a5 5 0 0 1-.336-.427 2.9 2.9 0 0 1-.482-1.264.08.08 0 0 1 .026-.065.528.528 0 0 0-.042-.835.8.8 0 0 1-.243-.266.53.53 0 0 0-.153-.401l-.037-.037a.1.1 0 0 1-.017-.038q.023-.26.087-.514a.52.52 0 0 0-.04-.37 1.2 1.2 0 0 0-.161-.414c-.069-.124-.146-.265-.146-.387v-.052a.53.53 0 0 0-.398-.512l-.03-.074-.062-.15q-.06-.302-.152-.597c-.225-.842-1.002-1.548-1.688-2.172l-.233-.213-.036-.03c-.443-.34-.81-.938-1.133-1.464a16 16 0 0 0-.33-.518c-.68-.895-1.45-1.72-2.296-2.46l-.005-.005a.53.53 0 0 0-.206-.3 1.1 1.1 0 0 1-.387-.492l-.033-.067c-.089-.156-.177-.321-.258-.47a7 7 0 0 0-.298-.521l-.051-.07v-.394a.5.5 0 0 0-.05-.225 7 7 0 0 0-.388-.717.53.53 0 0 0-.033-.386l-.053-.104-.415-.833a2 2 0 0 0-.078-.14.5.5 0 0 0-.078-.2.53.53 0 0 0 .268-.147.53.53 0 0 0 .413-.153.8.8 0 0 0 .142-.197 2.46 2.46 0 0 0 .515-.978.5.5 0 0 0 .018-.134v-.104c0-.1-.01-.234-.023-.386q-.03-.3-.032-.604a.57.57 0 0 1 .16-.458l.104-.104c.2-.2.207-.522.015-.73a.528.528 0 0 0 .535-.674 2.1 2.1 0 0 1-.084-.57.13.13 0 0 1 .01-.063.5.5 0 0 0 .043-.208v-.053a.543.543 0 0 0-.608-.523.14.14 0 0 1-.113-.057.85.85 0 0 1 .213-.41l.038-.046a5 5 0 0 1 .196-.237c.118-.138.212-.247.27-.364a.5.5 0 0 0 .052-.171.7.7 0 0 1 .077-.246q.108-.147.203-.305c.198-.275.206-.613.213-.971.005-.234.01-.476.068-.703a.53.53 0 0 0-.01-.29.6.6 0 0 1-.027-.227q.015-.31.085-.612c.133-.402.21-.82.228-1.242a1.9 1.9 0 0 0-.2-.833 1.3 1.3 0 0 0-.331-.482.13.13 0 0 1-.042-.095.53.53 0 0 0-.292-.461q-.045-.023-.091-.042.104-.075.191-.17a.528.528 0 0 0-.388-.884h-.26a.53.53 0 0 0-.364.146.53.53 0 0 0-.364-.146h-.029a.4.4 0 0 1-.208-.088l-.037-.028a.3.3 0 0 1-.096-.113 8.4 8.4 0 0 0-.27-1.215.528.528 0 0 0-.747-.318.53.53 0 0 0-.322.187v-.082a.53.53 0 0 0-.155-.373l-.156-.156a.528.528 0 0 0-.897.314q-.27.072-.545.12a2.8 2.8 0 0 1-.7.087h-.312a.5.5 0 0 0-.236.056l-.208.104h-.003l-.073-.004h-.052a.53.53 0 0 0-.334.12l-.056.017a.5.5 0 0 0-.265-.084.5.5 0 0 0-.23-.053h-.103a.53.53 0 0 0-.422.21.53.53 0 0 0-.412.145.53.53 0 0 0-.58.112l-.003.003-.04-.002h-.552a.53.53 0 0 0-.576.079.5.5 0 0 0-.143-.061.3.3 0 0 1-.118-.06.5.5 0 0 0-.092-.058c-.03-.015-.051-.03-.074-.045a2 2 0 0 0-.162-.1 1.8 1.8 0 0 1-.667-.752.5.5 0 0 0-.053-.09 1.35 1.35 0 0 1-.257-.653 1 1 0 0 0 .033-.128l.01-.02a.53.53 0 0 0-.243-.713.528.528 0 0 0-.387-.72.53.53 0 0 0-.334-.6l-.023-.053-.149-.297a3.96 3.96 0 0 0-2.2-2.053 4.2 4.2 0 0 0-1.215-.178h-.238q-.146.001-.314.024a3 3 0 0 1-.362.027h-.208a.5.5 0 0 0-.103.01l-.265.054a2 2 0 0 1-.516.04h-.417c-.14 0-.257.017-.36.032-.081.01-.145.02-.211.02a.5.5 0 0 0-.23.053h-.031a.5.5 0 0 0-.103.01l-.028.006a.5.5 0 0 0-.216-.01c-.129.022-.286.044-.443.065-.23.032-.45.062-.605.093l-.23.042c-.471.087-.917.17-1.398.213l-.469.052a1 1 0 0 0-.092.019q-.37.108-.708.293a1.2 1.2 0 0 0-.312.22c-.129.09-.238.207-.32.342a.5.5 0 0 0-.064.153.415.415 0 0 1-.367.322.53.53 0 0 0-.656-.152l-.087.044q-.18.082-.375.114c-.958.137-1.612.573-2.305 1.035-.192.128-.39.26-.61.394-.276.177-.588.248-.919.325q-.348.07-.683.192-.569.166-1.082.46a.5.5 0 0 0-.124.098c-.185.2-.399.372-.633.512a.7.7 0 0 1-.18.046.3.3 0 0 1-.186-.094 2.25 2.25 0 0 0-1.207-.57c-.107-.031-.206-.046-.294-.06-.064-.01-.133-.02-.21-.039l-.063-.011a.2.2 0 0 1-.124-.07.53.53 0 0 0-.464-.192 2 2 0 0 1-.177-.181l-.025-.05a.528.528 0 0 0-.944 0l-.032.063a.17.17 0 0 1-.12.061h-.076l-.029.001a.67.67 0 0 1-.378-.117.53.53 0 0 0-.522-.042.2.2 0 0 1-.08-.03.53.53 0 0 0-.268-.072h-.232q-1.105.052-2.188.277-.114.03-.232.037a.1.1 0 0 1-.053-.01.53.53 0 0 0-.458.019c-.844.047-1.68.194-2.489.44-.284.11-.557.268-.82.42-.41.238-.833.484-1.29.538a3.76 3.76 0 0 0-1.743.855l-.057.06a.2.2 0 0 1-.087.063.7.7 0 0 0-.235-.046h-.184a1.5 1.5 0 0 1-.734-.232 3.5 3.5 0 0 0-.706-.31c-.26-.093-.507-.18-.704-.333-.335-.264-.701-.464-1.056-.657-.482-.262-.937-.51-1.342-.914q-.518-.536-.985-1.117c-.36-.435-.734-.885-1.152-1.284-.115-.148-.31-.24-.525-.343-.07-.033-.15-.07-.25-.121a4.5 4.5 0 0 1-.803-.474.23.23 0 0 1-.095-.143.53.53 0 0 0-.34-.388.6.6 0 0 1-.223-.14.5.5 0 0 0-.077-.062c-.058-.038-.114-.086-.168-.13a1.7 1.7 0 0 0-.305-.215l-.044-.02a.75.75 0 0 1-.356-.286 2.6 2.6 0 0 0-.524-.655.5.5 0 0 0-.137-.09 18 18 0 0 1-2.316-1.245.53.53 0 0 0-.5-.36h-.057a5 5 0 0 1-.286-.063.528.528 0 0 0-.212-.771.1.1 0 0 1-.028-.02.5.5 0 0 0-.21-.116 1 1 0 0 1-.04-.177q-.021-.15-.066-.297a2.2 2.2 0 0 1-.084-.46.546.546 0 0 0-.546-.49.34.34 0 0 1-.182-.05.26.26 0 0 1-.099-.153.5.5 0 0 1 .044-.126l.053-.104a.53.53 0 0 0 .01-.452.5.5 0 0 1-.05-.22.5.5 0 0 0 .097-.075l.052-.052a.528.528 0 0 0-.164-.858.6.6 0 0 1-.15-.091v-.1a.5.5 0 0 0-.016-.128l-.036-.145v-.248a.53.53 0 0 0-.36-.5.7.7 0 0 0-.174-.252.2.2 0 0 1-.04-.055.53.53 0 0 0-.254-.244.1.1 0 0 1-.006-.053l.002-.04v-.156a.53.53 0 0 0-.404-.514.53.53 0 0 0-.27-.28 2 2 0 0 1-.28-.16l-.071-.041a.03.03 0 0 1-.016-.025.53.53 0 0 0-.462-.492l-.144-.018a1.4 1.4 0 0 0-.375-.301 3.4 3.4 0 0 1-.54-.315c-.01-.007-.03-.03-.04-.036a.53.53 0 0 0-.183-.403q.057-.13.105-.266a.528.528 0 0 0-.502-.694h-.051a.5.5 0 0 0-.234.054.5.5 0 0 0-.16-.05l-.33-.046-.013-.08-.04-.16a1.5 1.5 0 0 0-.314-.813.5.5 0 0 0-.208-.162.53.53 0 0 0-.306-.145.5.5 0 0 0-.047-.212.4.4 0 0 1 .04-.114.5.5 0 0 0 .058-.242v-.052a.53.53 0 0 0-.076-.274 1 1 0 0 1-.124-.326.7.7 0 0 0 .044-.233.528.528 0 0 0-.9-.373l-.054.055a1.3 1.3 0 0 1-.46.146.53.53 0 0 0-.41-.198.5.5 0 0 0-.086-.09l-.018-.035a.53.53 0 0 0-.36-.28V145a.8.8 0 0 0 .052-.267.53.53 0 0 0-.472-.525.3.3 0 0 1-.19-.095.5.5 0 0 0-.152-.112.2.2 0 0 1-.055-.042.53.53 0 0 0-.257-.153.1.1 0 0 1-.018-.026l-.022-.043a.3.3 0 0 1-.024-.052.53.53 0 0 0 .097-.304v-.053a.5.5 0 0 0-.053-.228v-.01a.53.53 0 0 0-.1-.602q.022-.276.12-.535a.5.5 0 0 0 .033-.185v-.052a.5.5 0 0 0-.05-.223 1 1 0 0 1-.084-.259.53.53 0 0 0 .184-.354c.202-.043.36-.2.405-.4a.528.528 0 0 0 .06-.81.7.7 0 0 0-.254-.157.53.53 0 0 0-.257-.253.5.5 0 0 0-.084-.13 5 5 0 0 0-.37-1.348 2.3 2.3 0 0 0-.952-1.215l.174-.089c.156-.077.258-.129.36-.231a7.3 7.3 0 0 0 1.345-2.074.5.5 0 0 0 .037-.131c.016-.062.074-.246.124-.408.05-.155.105-.335.161-.522.037-.085.056-.16.07-.216q.005-.027.012-.048a.5.5 0 0 0 .055-.222c.026-.943.354-1.78.702-2.665.303-.772.616-1.57.7-2.429q.068-.403.055-.812-.03-1.19-.208-2.365a2.6 2.6 0 0 0-.327-1.26l-.038-.06c-.07-.094-.155-.171-.243-.253-.138-.128-.242-.23-.294-.341a.5.5 0 0 0 .066-.102l.156-.312a.53.53 0 0 0-.087-.597.56.56 0 0 1 .173-.284l.023-.022.21-.208.043-.045a1 1 0 0 0 .31-.839 4.3 4.3 0 0 0-.535-1.424.53.53 0 0 0-.62-.23 1.25 1.25 0 0 1-.252-.54.5.5 0 0 0-.07-.175 1.3 1.3 0 0 1-.148-.335.53.53 0 0 0-.68-.353q.126-.749.362-1.47a.6.6 0 0 0 .023-.113 3.2 3.2 0 0 1 .43-1.308q.236-.286.558-.472a1.8 1.8 0 0 0 .705-.862c.043-.128.08-.293.118-.453l.056-.24a.44.44 0 0 1 .188-.282.53.53 0 0 0 .237-.44v-.102a2 2 0 0 1 .097-.324l.088-.119c.124-.167.291-.39.443-.65a1.9 1.9 0 0 0 .386-.669.53.53 0 0 0-.152-.56c.324-.465.804-.877 1.27-1.278.262-.225.51-.437.73-.66.667-.665.82-1.395.968-2.102.083-.396.17-.805.352-1.262q.063-.17.125-.349c.3-.85.612-1.728 1.41-2.184 1.194-.682 1.804-1.2 2.266-2.471q.164-.476.39-.924l.155-.313a.5.5 0 0 0 .056-.25l.025-.015c.172-.115.292-.285.407-.45a2 2 0 0 1 .167-.216.4.4 0 0 1 .07-.063q.465-.113.937-.184.279-.044.552-.097a5.5 5.5 0 0 0 2.876-1.28q.648-.588 1.336-1.13.46-.366.908-.749a15 15 0 0 0 1.876-2.195 4.26 4.26 0 0 0 .884-1.984 1.05 1.05 0 0 0-.344-.882 1.1 1.1 0 0 0-.316-.27l.018-.035a1 1 0 0 0 .04-.085 3.2 3.2 0 0 0 .19-1.335c.05-1.01.443-1.532 1.141-2.381.27-.359.32-.71.37-1.05.028-.187.056-.38.123-.603.143-.365.382-.686.69-.928.191-.175.371-.366.545-.55.422-.448.82-.87 1.394-1.126.28-.124.567-.245.851-.364.661-.278 1.344-.565 1.957-.91 1.702-.988 2.564-3.253 3.257-5.073l.092-.24a1 1 0 0 0 .026-.092 2.2 2.2 0 0 1 .268-.715h.074a2.2 2.2 0 0 0 .858-.223l.05-.01q.076.135.123.285c.17.526.522.975.991 1.266a2.77 2.77 0 0 0 1.61.503q.61-.02 1.214-.104h.224c.17 0 .348.014.52.027s.35.025.52.025l.066-.004c.265-.033.592-.074.884-.269l.016.044a.53.53 0 0 0 .28.29c.186.192.444.302.713.304a.84.84 0 0 0 .455-.102l.033-.004a.5.5 0 0 1 .176.07.53.53 0 0 0 .33.086 4.5 4.5 0 0 0 1.936-.607 2.3 2.3 0 0 0 .456-.18c.161-.097.3-.229.403-.386l.037-.066c.107-.23.275-.424.487-.562l.054-.041a.8.8 0 0 1 .304-.166.53.53 0 0 0 .478.05 1.46 1.46 0 0 0 .582-.405.3.3 0 0 1 .066-.024q.288.04.567.128a.5.5 0 0 0 .157.024c.372 0 .563-.267.712-.517l.016-.028c.595-1.144 2.626-1.53 3.488-1.643.323-.024.641-.075.95-.125.422-.068.822-.132 1.233-.132h.312c.31-.024.607-.126.865-.297l.067-.053a.65.65 0 0 1 .352-.167.2.2 0 0 1 .055.023q.122.073.265.073a.56.56 0 0 0 .32-.1h.333q.316-.012.627-.057a.5.5 0 0 0 .111-.029 3.6 3.6 0 0 1 1.375-.226H226c.378 0 .741.144 1.016.404.173.202.422.32.7.325.248 0 .428-.132.56-.229q.043-.032.096-.068c.129-.106.28-.183.442-.223.221-.001.443-.022.651-.06q.338-.055.65-.195a.53.53 0 0 0 .313-.482v-.04a1 1 0 0 1 .466.158c.322.228.705.354 1.1.358a1.36 1.36 0 0 0 .763-.254.9.9 0 0 0 .24-.286q.036.008.082.014c.107.035.21.084.31.132.118.057.24.115.369.15.056.224.25.386.481.4.202.011.405-.014.599-.074.186-.056.391-.056.61-.056.243 0 .495 0 .743-.08a.5.5 0 0 0 .182-.05.5.5 0 0 0 .207-.053.53.53 0 0 0 .308-.114.8.8 0 0 0 .216-.16 2.2 2.2 0 0 1 1.178-.673.5.5 0 0 0 .097-.031 2.3 2.3 0 0 1 .6-.165m-5.916.599h.002zm3.55.528h.003zm-14.078.474h.002zM200.25 71.85h.002zm-1.077.247h.003zm42.55 5.95h.002zm-62.847 19.015h.002zm-10.725 43.372h.003zm60.04 25.89h.002zm10.145 17.473h.003zm.638-116.89h-.021a2.8 2.8 0 0 0-.781.209c-.56.12-1.069.41-1.456.832-.052.052-.105.052-.156.104h-.012a.4.4 0 0 0-.197.052h-.104l-.103.052h-.053c-.364.156-.884 0-1.404.156q-.204.064-.417.052l.209-.364h-.468c-.208 0-.469-.208-.833-.313-.104 0-.156-.051-.26-.051a.35.35 0 0 0-.364.26.4.4 0 0 1-.104.156.84.84 0 0 1-.468.156 1.4 1.4 0 0 1-.78-.26 1.56 1.56 0 0 0-.833-.26.38.38 0 0 0-.312.104.47.47 0 0 0-.156.364v.104a2 2 0 0 1-.52.156 3.3 3.3 0 0 1-.625.052 1.64 1.64 0 0 0-.676.312c-.156.104-.26.208-.364.208a.4.4 0 0 1-.313-.156A2 2 0 0 0 226 68.26h-1.093a4.1 4.1 0 0 0-1.56.26q-.285.041-.573.052h-.468s-.052 0-.156.104a.74.74 0 0 0-.312-.104 1.17 1.17 0 0 0-.728.312 1.3 1.3 0 0 1-.573.208h-.312c-.78 0-1.509.208-2.237.26-1.197.157-3.226.625-3.902 1.925-.156.26-.208.26-.26.26a4 4 0 0 0-.728-.156.83.83 0 0 0-.417.157.95.95 0 0 1-.416.311.9.9 0 0 0-.26-.104c-.25.04-.484.148-.676.313a1.9 1.9 0 0 0-.676.78.7.7 0 0 1-.208.208q-.199.105-.417.156a3.9 3.9 0 0 1-1.768.572 1 1 0 0 0-.417-.156.66.66 0 0 0-.312.053.3.3 0 0 1-.208.051.48.48 0 0 1-.364-.156c-.052-.052-.052-.104-.104-.156l-.053.052a1.5 1.5 0 0 1-.103-.468v-.052l-.417-.104c-.208.416-.52.468-.936.52-.312 0-.676-.052-1.04-.052h-.26q-.596.084-1.197.104c-.466 0-.92-.146-1.3-.416a1.8 1.8 0 0 1-.78-.988 2 2 0 0 0-.157-.365.45.45 0 0 0-.416-.312c-.104 0-.156.052-.26.052a1.7 1.7 0 0 1-.728.208h-.104a.48.48 0 0 0-.364.209 2.8 2.8 0 0 0-.365.936c-.676 1.768-1.509 4.11-3.12 5.046-.833.468-1.822.833-2.758 1.249-.937.416-1.456 1.196-2.081 1.768-.374.302-.66.697-.833 1.145-.207.676-.104 1.092-.416 1.509-.728.884-1.196 1.508-1.248 2.705.032.388-.02.78-.156 1.145a.75.75 0 0 0-.105.364.44.44 0 0 0 .209.364.52.52 0 0 1 .26.208.52.52 0 0 1 .208.468 3.73 3.73 0 0 1-.78 1.717 14.6 14.6 0 0 1-1.821 2.133c-.728.624-1.509 1.196-2.237 1.872a4.96 4.96 0 0 1-2.601 1.145c-.52.104-1.04.156-1.613.312a.9.9 0 0 0-.26.208c-.157.156-.312.468-.468.572-.053 0-.053.053-.105.053l-.051.052-.313.364h.209l-.157.312q-.241.48-.416.988c-.416 1.145-.936 1.56-2.029 2.185s-1.404 1.821-1.769 2.81c-.52 1.3-.312 2.288-1.196 3.173-.728.728-1.873 1.457-2.341 2.497l.364.208c-.064.195-.17.372-.312.52-.208.365-.468.677-.572.832a3 3 0 0 0-.156.521v.156a.96.96 0 0 0-.417.624c-.051.208-.104.468-.156.625a1.26 1.26 0 0 1-.468.572 2.6 2.6 0 0 0-.728.624 3.7 3.7 0 0 0-.52 1.56c-.233.71-.39 1.443-.468 2.186-.005.251.05.5.156.728l.208-.104.207.052q.079-.37.209-.728.071.248.208.468c.076.383.278.73.572.988l.312.209.052-.26c.23.385.388.807.469 1.248a.47.47 0 0 1-.157.364l-.052.052-.208.208c-.21.187-.341.447-.364.728a.38.38 0 0 0 .104.313h.052l-.156.312-.208-.052.052.312c.052.52.52.78.677.988.177.318.266.677.26 1.04q.177 1.165.208 2.342.012.367-.053.728c-.155 1.717-1.352 3.225-1.404 5.15-.052.104-.052.208-.104.312-.156.521-.312.989-.312 1.041a6.8 6.8 0 0 1-1.25 1.925c-.05.052-.31.156-.571.312a1.5 1.5 0 0 0-.364.26.64.64 0 0 0-.208.416v.053l.052.415.312-.311a.4.4 0 0 1 .208-.105c.42.218.737.592.884 1.04.201.463.324.955.364 1.457v.053h.105v.155l.051.157.209-.053-.052.26h.26a.2.2 0 0 1 .156.053.43.43 0 0 0-.208.312h-.053a.31.31 0 0 0-.26.104c-.052.052-.156.104-.26.208l.157.156-.209-.052v.208c-.003.252.05.5.156.728v.053a2.6 2.6 0 0 0-.156.728.38.38 0 0 0 .104.312l.052.052a.4.4 0 0 0-.052.26.3.3 0 0 0 .052.208v.053a.4.4 0 0 0-.103.26.8.8 0 0 0 .103.363q.04.086.104.156l.104.26.156-.103a.7.7 0 0 0 .209.156.84.84 0 0 0 .52.26c0 .052-.052.156-.052.208v.104h-.052l.156.364c.052.104.052.156.104.26l.208-.104.104.208h.052a.52.52 0 0 0 .364.209h.052v.26l.26-.053c.33 0 .654-.09.937-.26l.104-.104c0 .052-.052.104-.052.208.021.222.093.435.208.624v.053a1 1 0 0 0-.104.364.4.4 0 0 0 .052.208l-.104.208-.104.052.26.208c.104.052.156.156.26.208l.156-.156c.052.052.104.104.156.104.127.165.2.365.208.573l.053.207a.52.52 0 0 0 .416.469l.364.052.104.52.312-.468.052-.052h.052c-.052.156-.156.364-.208.52l-.208.364.416-.052h.052a.55.55 0 0 0 .26.469q.296.21.624.364c.157.104.26.207.26.312l.417.052c.011.2.13.38.312.468q.172.12.364.208l-.104.26.26.052h.208v.156a.66.66 0 0 0 .052.312c0 .052.052.104.104.156s.104.104.156.104q.06.119.156.209.046.042.053.104l-.053.312.312-.052h.053v.312l.05.208v.208l.054.416.156-.104q.119.095.26.156l-.052.052a.55.55 0 0 0-.26.468q.015.218.103.417l-.051.104a1 1 0 0 0-.104.364.8.8 0 0 0 .312.572c.152.106.334.16.52.156q.021.292.104.573c.052.156.052.31.104.468q.021.119.104.208c.055.092.153.15.26.156q.071.063.156.104h-.312v.26l-.208-.104c0 .052-.052.104-.052.156l-.104.208.26.052c.352.142.719.246 1.092.312h.105l-.053.104q1.266.838 2.654 1.457.25.226.416.52c.146.237.365.42.624.52.104.052.26.208.417.312.117.116.26.205.416.26a.76.76 0 0 0 .312.469q.415.306.884.52c.312.156.572.26.572.312.781.729 1.405 1.665 2.185 2.445.781.78 1.717 1.04 2.446 1.613.468.364 1.04.416 1.456.676.297.189.638.296.988.313h.209c.051 0 .104.05.208.05a.72.72 0 0 0 .52-.26 3.2 3.2 0 0 1 1.456-.727c.885-.104 1.561-.728 2.237-.988a10 10 0 0 1 2.55-.417v-.051a.66.66 0 0 0 .312.05 2 2 0 0 0 .312-.05q1.029-.212 2.08-.26h.21c.11.064.235.1.363.103a.3.3 0 0 0 .208-.052c.214.147.47.22.728.209h.053a.71.71 0 0 0 .572-.313l.052-.104.052.104q.162.202.364.364l-.104.209.417-.157a.7.7 0 0 0 .467.26c.208.053.365.053.52.105.348.04.674.186.937.416a.84.84 0 0 0 .572.26q.218-.015.416-.104.437-.256.781-.624c.31-.18.643-.32.988-.417.52-.208 1.145-.208 1.717-.572.936-.572 1.613-1.196 2.705-1.353q.271-.041.52-.156l.104-.051a.48.48 0 0 0 .313.207h.104a.95.95 0 0 0 .884-.728.6.6 0 0 1 .208-.208.7.7 0 0 1 .208-.156q.298-.165.625-.26l.468-.052c.572-.052 1.092-.156 1.665-.26.26-.052.728-.104 1.04-.156v.052l.26-.052h.26v-.052c.208 0 .364-.052.572-.052h.417q.316.012.624-.052l.26-.053h.208c.26 0 .52-.051.676-.051h.238c.36 0 .718.053 1.063.156.829.326 1.5.96 1.873 1.768l.156.313c.045.15.162.266.312.312a.27.27 0 0 0-.104.208.35.35 0 0 0 .208.312.7.7 0 0 0 .312.104.6.6 0 0 0-.052.26c-.008.09.01.18.053.26l.05.209.209-.053-.052.104c0 .104-.052.157-.052.26.025.358.15.7.364.99.192.408.5.75.885.987.104.052.156.105.26.156a.8.8 0 0 0 .312.157c.05.097.15.158.26.156.208 0 .26-.104.364-.21.06.043.135.06.208.054h.573v.312l.364-.417.052-.052.052.053a.27.27 0 0 0 .208.104c.104 0 .208-.053.208-.104 0-.053.052-.104.104-.157l.104.104.208.104.104-.208c0-.052.052-.156.052-.207h.104l-.104.05h.313v.21a1 1 0 0 0 .364-.105l.104-.052h.208v-.103h.052l.052.103c.104-.052.156-.103.26-.156l.208-.104h.327q.415 0 .818-.104.342-.06.676-.156c.16-.077.26-.24.26-.416l.156.156v.104a.56.56 0 0 0 .156.364c.113.104.263.16.417.156h.364v-.208a.2.2 0 0 0 .155-.052q.177.589.26 1.197a.8.8 0 0 0 .313.416c.148.12.33.194.52.208h.052c.1.162.276.26.466.26h.158l.053-.156.05-.104h.26a.7.7 0 0 1-.206.156.66.66 0 0 0-.21.364c0 .177.102.339.26.417.053.052.106.052.21.103a.66.66 0 0 0 .207.469.8.8 0 0 1 .209.312c.1.193.153.406.156.624-.02.372-.09.74-.208 1.092a4 4 0 0 0-.104.729c-.01.14.009.282.05.417-.154.623 0 1.248-.206 1.508a3 3 0 0 1-.208.312 1.2 1.2 0 0 0-.156.468c-.053.104-.26.312-.417.52a1.37 1.37 0 0 0-.364.78.3.3 0 0 0 .052.209.67.67 0 0 0 .676.364v.052a.66.66 0 0 0-.051.312q.008.345.104.676a.47.47 0 0 0-.26-.051h-.157a.4.4 0 0 0-.26.104.29.29 0 0 0-.156.26c0 .208.104.26.208.364l.208.208-.104.104a1.1 1.1 0 0 0-.312.884c0 .364.052.728.052.937v.104a1.9 1.9 0 0 1-.417.78c-.051.052-.051.104-.103.156l-.053-.052-.311-.312-.053.416v.104h-.051v-.104l-.053-.832-.364.728a1 1 0 0 0-.104.364 1 1 0 0 0 .238.647l-.03.03s.105.156.156.26l.417.832.052.104-.156.104q.328.47.572.989v.364h-.156l.312.416c.104.156.312.572.52.936.117.293.315.546.572.728l-.051.053.208.208c.825.72 1.574 1.52 2.236 2.393.417.624.885 1.56 1.56 2.08.677.625 1.562 1.353 1.77 2.134q.096.307.156.624c.052.104.104.26.156.364.066.114.181.19.312.208v.052c0 .416.312.729.312.885a.5.5 0 0 0 .052.156 3.6 3.6 0 0 0-.103.624.6.6 0 0 0 .155.416l.053.052h-.053c.085.296.268.553.52.728a.6.6 0 0 0-.207.52c.066.542.263 1.06.572 1.51.312.467.728.78.832 1.196.104.26.052.624.208 1.04.218.74.515 1.456.884 2.133.264.44.408.943.417 1.457v.364c0 .053 0 .053-.052.053a3 3 0 0 0-.312.207l-.156.156a.77.77 0 0 0-.468.676c.01.16.044.32.104.469l.052.364.05-.156.158.312c.09.285.127.586.104.884.052.364.312.573.364.78.13.54.32 1.065.572 1.56.319.438.549.933.676 1.458.11.425.162.862.156 1.3a5.7 5.7 0 0 1-.676 2.862q-.173.304-.312.624c-.104.156-.156.208-.416.208a1.04 1.04 0 0 0-.885.677q-.108.423-.26.832a4.5 4.5 0 0 1-.884 1.092.96.96 0 0 0-.26.833 1.2 1.2 0 0 1-.156.676c-.417.676-.26 1.405-.364 2.029-.053.364-.52 1.249-.52 1.82-.01.09.01.18.05.26l-.103.209a.77.77 0 0 0-.156.417c-.052.26-.052.52-.104.676s-.364.364-.572.728a.3.3 0 0 0-.052.208c.01.16.046.319.104.468 0 .208.052.417.052.625 0 .936-.208 1.924-.208 2.913v.208c0 .26-.052.52-.052.78 0 1.353.26 2.705 1.405 3.693 1.144.99 1.352 2.706 2.08 4.11s.989 3.018 2.08 4.423c.157.208.209.572.418.936.208.364.468.676.676.988a3.24 3.24 0 0 1 .728 1.873v.312c-.052.364-.208.99-.208 1.04v.26q.016.654.104 1.302v1.248c.005.352.057.702.156 1.04.312.668.555 1.365.728 2.082v.156c0 .208-.052.468-.052.728a.9.9 0 0 0 .052.364c.053.26.053.572.104.885.053.468.209.832.209 1.196v.364a.84.84 0 0 0 .155.469c.152.15.228.36.209.57v.26q-.008.214.052.418c.104.416.312.572.364.832.019.36.107.714.26 1.04q.435.919.988 1.77c.469.676 1.093 1.144 1.51 1.665a.62.62 0 0 0 .468.26c.155.78.78 1.404.988 1.976.26.677.416 1.457.624 2.185a19 19 0 0 0 2.08 4.422c.526.807.814 1.744.834 2.705v.104a3 3 0 0 1-.105.728c-.104.209-.156.26-.312.26a.52.52 0 0 1-.312-.103l-.26-.156-.104.26a3 3 0 0 0-.208.78.46.46 0 0 0 .052.26.37.37 0 0 0 .312.157c.104 0 .052 0 .104.05v.106c0 .104.052.104.052.155q.285.487.624.937c.17.248.278.534.313.832v.104c0 .209-.26.677-.313 1.093a.76.76 0 0 0 .52.728l.313.104v-.364c0-.156-.052-.312-.052-.417v-.155l.052-.052h.104c.208 0 .26.104.26.26a.6.6 0 0 1-.052.26l-.104.26.26.052c.156.052.468.052.78.104q.186.042.365.105l.05.05a.16.16 0 0 1-.05.106l-.21.26.314.104c.224.084.422.228.57.416a.83.83 0 0 0 .418.156h.26q.201.08.417.104a.4.4 0 0 0 .26-.104q.116-.12.26-.208a4.2 4.2 0 0 1 1.04-.728c.208-.105.52 0 .937-.21q.128-.033.26-.051c.364 0 .936.104 1.456.104a.96.96 0 0 0 .936-.416 2.34 2.34 0 0 1 1.82-.832h.365q.177.063.364.052c.158-.02.319-.001.469.052q.175.078.364.104c.156 0 .312-.104.312-.156a.4.4 0 0 1 .156-.104c.202-.064.413-.1.624-.104.536.04 1.062.163 1.56.364q.38.139.782.156c.52 0 .728-.312 1.196-.573a.46.46 0 0 1 .26-.051c.312 0 .728.26 1.197.312.13.012.26-.025.364-.104l.364-.157-.364-.207-.104-.104.104-.21a.45.45 0 0 1 .312-.154.6.6 0 0 1 .26-.053c.312 0 .624.104 1.04.104h.208c1.197-.156 2.186-.988 3.018-1.612 1.092-.832 2.133-1.717 3.173-2.601.885-.728 1.353-1.717 2.133-2.342a14 14 0 0 0 2.6-2.653q.603-.92 1.146-1.873c.313-.361.575-.764.78-1.196a7.1 7.1 0 0 1 1.353-2.133c.156-.208.416-.468.52-.468h.019q.176 0 .345-.052a.4.4 0 0 0 .209-.104.27.27 0 0 0 .104-.208 1.52 1.52 0 0 0 .988-.885q.3-.626.468-1.3c.364-1.3.728-2.446 1.04-3.746.157-.052.26-.26.313-.416q.095-.358.104-.728c0-.417-.053-.833-.053-1.093v-.208l-.415-.104a.2.2 0 0 1-.052.104l-.365-.364-.104-.104c.11-.06.202-.15.26-.26q.188-.297.312-.625a2.2 2.2 0 0 1 1.04-.884c.946-.575 1.96-1.03 3.018-1.353A5.86 5.86 0 0 0 307.31 257c.313-.364.937-1.092.937-1.82a1 1 0 0 0-.156-.52l-.26-.417c.156-.624.52-1.3.624-1.976v-.104c0-.417-.208-.677-.208-.937v-.052c.052-.416.156-.832.208-1.25h-.104v-.311l.052-.676-.416.52-.052.053-.005-.07c.034-.147.056-.298.057-.451v-.052l-.128-.032a2 2 0 0 1-.028-.28c-.052-.572-.364-1.145-.364-1.56a.47.47 0 0 1 .052-.26l-.104-.053c0-.208.05-.52.05-.572v-.052a1.66 1.66 0 0 0-.363-1.145c-.208-.26-.416-.364-.468-.468s-.104-.052-.104-.312v-.364a.47.47 0 0 0-.052-.26.7.7 0 0 0 .156-.208c.065-.13.1-.272.104-.417a.66.66 0 0 0-.052-.311h.104a1.16 1.16 0 0 0 .676-.313 1.5 1.5 0 0 0 .417-.416 9.3 9.3 0 0 0 1.144-1.353 7 7 0 0 1 1.145-.988.27.27 0 0 0 .208.104c.098.01.195-.03.26-.104l.208-.104.156.156a.44.44 0 0 0 .156-.26h.104l-.052-.26V239c0-.26.312-.571.676-.884s.833-.624.833-1.145a.3.3 0 0 0-.052-.207c.315-.103.6-.282.832-.52.26-.26.573-.52.677-.625a6 6 0 0 0 1.56-.884c.094-.094.13-.113.146-.113.01 0 .01.009.01.009q.186-.002.365-.053.405-.15.78-.364.382-.155.78-.26a5 5 0 0 0 .468-.156c.052-.052.156-.052.209-.104a.32.32 0 0 0 .155-.26v-.052l.052-.052c.265-.248.563-.458.885-.624.357-.156.676-.386.936-.676l.156.26.156-.417c.053-.103.053-.26.104-.416q.375-.441.677-.936c.26-.52.832-.833 1.196-1.509.14-.263.244-.543.313-.832a.3.3 0 0 0-.053-.208l.104-.104a.4.4 0 0 0 .105-.26v-.104l.104-.26h-.053a.64.64 0 0 0 .209-.417c.052-.208.052-.416.104-.624v-.156a.52.52 0 0 0-.364-.52q.088-.2.104-.416a.265.265 0 0 0-.26-.313c0-.312.104-.832.104-1.248a1.4 1.4 0 0 0-.052-.468 1.1 1.1 0 0 0-.21-.313q.033-.238.105-.468.108-.358.157-.728a.52.52 0 0 0-.104-.364l-.104-.104c.1-.212.154-.443.156-.676a.66.66 0 0 0-.053-.313 1.1 1.1 0 0 0-.156-.26c-.051-.052-.051-.052-.051-.104v-.052a.66.66 0 0 0 .05-.312v-.208a.4.4 0 0 1-.05-.156l.05-.104q.041-.154.054-.313v-.26a2 2 0 0 0-.053-.572 5 5 0 0 0-.051-.78 1.28 1.28 0 0 0-.26-.78c0-.052.052-.052.104-.105.05-.052.156-.156.207-.312a1.4 1.4 0 0 0 .104-.624 1 1 0 0 1 .105-.416l.155-.208-.207-.105a.74.74 0 0 0 .104-.31.557.557 0 0 0-.468-.574v-.052a1.17 1.17 0 0 0-.417-.78 1.04 1.04 0 0 0-.728-.312h-.104c-.052-.052-.052-.105-.104-.156a.77.77 0 0 0-.312-.26v-.104a.6.6 0 0 0-.157-.417v-.052a.7.7 0 0 0 .053-.312v-.104a2 2 0 0 0-.26-.468c-.104-.104-.104-.156-.104-.208v-.052c.096-.176.15-.372.156-.572a.37.37 0 0 0-.417-.417.6.6 0 0 0-.052-.26c0-.052-.052-.104-.104-.208.052-.052.052-.104.052-.208a1.1 1.1 0 0 0-.208-.572 1 1 0 0 1-.156-.468v-.156c.012-.362.1-.716.26-1.04q.098-.279.104-.573c.008-.14-.01-.282-.052-.416-.052-.104-.104-.26-.26-.26q.06-.283.052-.572c.006-.297.096-.586.26-.833.17-.244.262-.535.26-.832a1.5 1.5 0 0 0-.104-.468.5.5 0 0 0-.104-.104c.046-.134.063-.276.053-.417a.9.9 0 0 0-.053-.364.52.52 0 0 0-.311-.26c.008-.42-.1-.834-.313-1.197l-.26-.416-.156.47c0 .05-.104.155-.208.31a.8.8 0 0 0-.197.464c-.07-.084-.116-.165-.116-.255v-.209c0-.31-.208-.52-.155-.624q.014-.242.104-.468.174-.533.416-1.04a8.3 8.3 0 0 0 .676-2.29v-.104c.052-.05.104-.104.156-.104l.312.208.052-.364c.052-.468.677-.988.728-1.769v-.05a.94.94 0 0 0 .26-.365 5.6 5.6 0 0 0 .365-.989c.06-.243.167-.472.312-.676.175-.162.316-.356.417-.573.154-.212.244-.465.26-.728a.2.2 0 0 0-.053-.156.66.66 0 0 1-.052-.312.64.64 0 0 1 .625-.677c.388-.022.739-.237.936-.572v.157l.364-.364a.73.73 0 0 0 .156-.469 1.2 1.2 0 0 0-.104-.417v-.05c.052 0 .156.051.208.051a1.92 1.92 0 0 0 1.3-.833l.157-.312a4.4 4.4 0 0 0 1.092-2.133.44.44 0 0 0 .26-.155q.342-.34.625-.729c.312-.416.624-.884.936-1.249.677-.832 1.405-1.664 2.08-2.497.677-.832 1.562-1.613 2.342-2.393a12.5 12.5 0 0 1 2.29-1.716 21.8 21.8 0 0 0 4.993-4.527c.728-.884 1.457-1.768 2.185-2.705.677-.832 1.04-1.873 1.613-2.705a21 21 0 0 0 1.665-2.81c.416-1.04.468-2.08.936-2.964q.706-1.02 1.249-2.133c.156-.417 0-.78.156-.989s.312-.26.624-.572c.624-.728.52-1.717.937-2.289.41-.54.742-1.136.988-1.769a5.3 5.3 0 0 0 .156-1.56v-.885c0-.208.052-.208.104-.26q.041-.039.123-.046c.016-.084.033-.166.033-.266a5 5 0 0 0-.104-.936 2.3 2.3 0 0 1-.052-.573c.02-.478.108-.95.26-1.405v-.156c0-.364-.312-.572-.572-.728a2.04 2.04 0 0 0-.936-.208.56.56 0 0 0-.417.104 1.6 1.6 0 0 0-.572.624 1.4 1.4 0 0 1-.416.52c-.52.26-1.196.157-1.873.417a4.2 4.2 0 0 1-1.509.572h-.103c-.26 0-.52-.156-.885-.156a.7.7 0 0 0-.312.052 5.3 5.3 0 0 0-1.093.416 1.8 1.8 0 0 1-.676.156 2.3 2.3 0 0 1-.728-.156c-.053 0-.156-.052-.208-.052a1.87 1.87 0 0 0-1.04.468 6 6 0 0 0-.729.573 1.64 1.64 0 0 1-.832.26 4.2 4.2 0 0 1-.989-.156 5.4 5.4 0 0 0-.78-.104 1.47 1.47 0 0 0-.989.416 8.6 8.6 0 0 1-1.3.78 3 3 0 0 1-.95.156 2.29 2.29 0 0 1-1.807-.884c-.573-.676-1.041-1.873-1.978-2.393-.103-.104-.207-.26-.364-.312a.47.47 0 0 0-.26-.053 3 3 0 0 0-.728.157.9.9 0 0 1 .312-.313 4.1 4.1 0 0 0 1.509-.884c.099-.156.153-.336.156-.52a2 2 0 0 0-.417-1.04c-.155-.26-.364-.52-.468-.677v-.104a.8.8 0 0 0-.416-.572l-.26-.208-.104.312v.052a2 2 0 0 1-.416-.468c-.156-.208-.26-.417-.364-.52a.62.62 0 0 0-.416-.208.4.4 0 0 1-.157-.105c-.104-.26-.051-.832-.52-1.196l-.52-.364a1.9 1.9 0 0 0-.52-.364 5.1 5.1 0 0 1-1.092-1.25c-.313-.467-.625-1.09-1.405-1.196a.62.62 0 0 1-.417-.208c-.103-.104-.208-.26-.416-.468a.83.83 0 0 0-.52-.26c-.312 0-.468.156-.572.156h-.104a1.14 1.14 0 0 1-.416-.78.74.74 0 0 0-.208-.52.7.7 0 0 0-.573-.313h-.104a.44.44 0 0 0-.26.156.19.19 0 0 0-.052.157c-.052-.26-.26-.364-.364-.469s-.156-.156-.156-.208a4.9 4.9 0 0 0-.52-1.3 6 6 0 0 1-.26-1.145 23 23 0 0 0-1.77-4.89c0-.177-.1-.338-.26-.416a1.4 1.4 0 0 0-.467-.26c-.157-.104-.157-.104-.157-.156v-.468l-.312.26a6 6 0 0 1-.676-.625 2.4 2.4 0 0 0-.937-.728 1.3 1.3 0 0 1-.728-.936 5.8 5.8 0 0 1-.26-1.457c-.052-.885-.26-1.665-.26-2.445a2 2 0 0 1 .052-.52v-.26a3.15 3.15 0 0 0-.312-1.25.2.2 0 0 0-.052-.103l.416-.052a1.67 1.67 0 0 0-.52-1.093 3.4 3.4 0 0 1-.572-.832 3 3 0 0 1-.104-.936 1.24 1.24 0 0 0-.625-.885c-.52-.364-.884-1.092-1.56-1.509-.677-.416-1.093-.572-1.301-1.248l-.104-.416-.052.052-.052-.052a2.25 2.25 0 0 1-.312-1.353q-.013-.264.052-.52.256.064.52.052h.468l-.208-.312c-.364-.573-.936-.677-1.145-1.092a11.6 11.6 0 0 1-.988-1.405c-.676-1.405-1.405-2.758-2.133-4.11-.208-.417-.468-.833-.676-1.249a.9.9 0 0 0-.26-.364c-.053-.052-.104-.104-.104-.156l-.052-.052a.16.16 0 0 1 .052-.104.44.44 0 0 0 .104-.312.3.3 0 0 0-.053-.208 2 2 0 0 1-.364-.624c-.188-.5-.47-.96-.832-1.353-.052-.052-.052-.104-.052-.208v-.156a.66.66 0 0 0-.052-.312.26.26 0 0 0 .052-.157.7.7 0 0 0-.156-.416c-.052-.104-.156-.208-.208-.312a9 9 0 0 0-.728-.676 12.7 12.7 0 0 1-1.353-1.82c-.417-.625-.364-1.457-.988-2.238a.4.4 0 0 1-.104-.26c.009-.2.062-.396.156-.572a7.3 7.3 0 0 0 .936 1.925c.364.468.884.936.884 1.352v.312c.02.362.215.69.52.885q.346.248.625.572c.24.406.558.76.936 1.04.312.208.676.365.885.52l.364-.26v-.052a.85.85 0 0 1 .208-.468c.138-.2.228-.433.26-.676v-.26a2 2 0 0 1 .156-.936c.364-.937.26-2.186.728-2.758l.105-.104-2.341-6.139-.26.21a3 3 0 0 1-1.145.571c-.364.104-.78 0-1.248.156l-.053-.052a.9.9 0 0 0-.26-.104 1.5 1.5 0 0 0-.468.104 2 2 0 0 0-.26.104h-.104a.96.96 0 0 1-.624-.26 1.8 1.8 0 0 0-.833-.417 2 2 0 0 1-.26-.312.69.69 0 0 0-.468-.364c-.052 0-.156-.052-.208-.052a.75.75 0 0 0-.364.105c-.156.051-.313.155-.364.155h-.053a1.4 1.4 0 0 1-.52-.208 1.7 1.7 0 0 0-.78-.26.7.7 0 0 0-.312.052v.104h-.156c-.433 0-.732.266-.94.266a.2.2 0 0 1-.05-.005.2.2 0 0 1-.155-.053l-.26-.156-.052.312c-.074.188-.2.351-.364.468-.052-.05-.104-.05-.156-.104l-.156-.103-.156.156a9 9 0 0 1-.73.676 2.6 2.6 0 0 1-1.507.728h-.208c-.625-.104-1.145-.572-2.03-.676-.26 0-.468-.052-.676-.052a.6.6 0 0 0-.156-.104.52.52 0 0 0-.416-.208h-.052c-.156 0-.26.052-.416.052a.66.66 0 0 1-.312-.052.9.9 0 0 1-.26-.208.82.82 0 0 0-.47-.312 17 17 0 0 0-2.34-.468 12 12 0 0 0-1.456-.209 3.6 3.6 0 0 0-.676.104 1.4 1.4 0 0 1-.625.105c-.104 0-.156 0-.208-.053-.052-.052-.052-.052-.052-.156v-.468l-.052.052c-.052-.156-.156-.26-.208-.416a1.12 1.12 0 0 0-.624-.468 1.4 1.4 0 0 0-.468-.052c-.26 0-.52.052-.781.052a2 2 0 0 1-.572-.052 7.4 7.4 0 0 0-1.717-.52 3 3 0 0 1-.624-.105c-.208-.104-.312-.156-.312-.26V82.1a.47.47 0 0 0-.156-.416 1.5 1.5 0 0 0-.52-.312 12 12 0 0 0-1.666-.677 3.2 3.2 0 0 0-.988-.104 2.6 2.6 0 0 0-.624.052c-.624.052-.937.47-1.352.47a3.5 3.5 0 0 0-1.925.831 3.9 3.9 0 0 0-1.353 1.613q-.09.305-.104.624c.014.406.084.81.208 1.197q.275.548.417 1.144v.156a2.9 2.9 0 0 1-2.446 2.081h-.104c-.78 0-1.353-.78-2.08-1.405a9.4 9.4 0 0 0-3.59-1.456c-1.145-.208-2.186-.053-3.018-.728a2.25 2.25 0 0 1-.78-1.457 2.18 2.18 0 0 0-.728-1.51c-.52-.31-1.145-.155-1.457-.259-.417-.156-.832-.52-1.353-.78-.624-.26-1.196-.26-1.716-.469a1.5 1.5 0 0 0-.47-.104 8 8 0 0 0-1.3.313h-.312a2.08 2.08 0 0 1-1.248-.364c-.52-.313-1.145-.469-1.56-.78l-.053-.053-.104-.104-.156-.104v.052a.66.66 0 0 0-.312-.052h-.104a.35.35 0 0 0-.156-.312.7.7 0 0 0-.156-.208v-.209a.44.44 0 0 0-.312-.415h-.052a.52.52 0 0 0 .156-.417.43.43 0 0 0-.208-.31 1 1 0 0 0-.417-.054.63.63 0 0 0-.416.104c-.156.053-.208.26-.208.417v.155c-.208 0-.312.053-.416.053s-.052 0-.104-.053a1.8 1.8 0 0 1-.572-.52 1.1 1.1 0 0 1-.208-.572c0-.208.156-.364.416-.572.26-.209.624-.364.936-.624.677-.573 1.353-1.458 1.353-2.394.008-.14-.01-.282-.053-.416a2.6 2.6 0 0 0-.26-.832 2.5 2.5 0 0 0-.676-.52 1.23 1.23 0 0 1-.572-1.093v-.052c0-.208.208-.468.572-.78a5 5 0 0 0 .885-.937.88.88 0 0 0 .156-.52.68.68 0 0 0-.416-.624c-.052 0-.104-.052-.157-.052a.52.52 0 0 0-.415.208c-.105.104-.21.208-.26.208a3.2 3.2 0 0 1-.73.52h-.051c0-.052.052-.104.052-.208a.55.55 0 0 0-.26-.468c0-.052.052-.104.052-.156a.2.2 0 0 0-.052-.157.76.76 0 0 0-.416-.468c-.156-.052-.313-.052-.52-.103a.29.29 0 0 0-.26-.157.6.6 0 0 0-.239-.052zm-71.092 80.151v-.208l-.052-.312-.312.156q-.175.106-.312.26l-.364.364h.78v-.155l.104-.053.157-.052zm.209.833a.4.4 0 0 0-.417.364.52.52 0 0 0 .26.417l.157-.157.156.156q.119-.095.26-.156l.208-.104-.104-.208a.71.71 0 0 0-.52-.312" class="st2"/><path d="M169.026 146.798h-.52l-.052.209-.208-.105c-.053.105-.053.156-.104.26l-.052.209.207.103a.4.4 0 0 0 .26.053c.261 0 .417-.26.469-.469zm.312.624a.7.7 0 0 0-.417.573v.104l.209-.053.156.157c.18-.148.307-.348.364-.572l.104-.417z" class="st2"/><path d="M320.68 205.801c-.051.105-.156.156-.26.313a.7.7 0 0 0-.312.572v.156l.208-.053.156.157c.104-.104.26-.156.364-.312a.71.71 0 0 0 .313-.573.47.47 0 0 0-.052-.26l-.208-.52zm-.104-9.182-.26-.104-.052.312v.26h.208l-.208.052a.44.44 0 0 0 .105.313v.051l-.625.053.572.364a.74.74 0 0 0-.104.312.4.4 0 0 0 .364.416.56.56 0 0 0 .468-.364c.102-.23.155-.477.157-.728a.84.84 0 0 0-.625-.937" class="st0"/><path d="M320.732 134.537q.308.084.625.104h.676l-.156-.312a.6.6 0 0 0-.312-.312 1.3 1.3 0 0 0-.417-.052c-.104 0-.051 0-.104-.052a1.1 1.1 0 0 1-.051-.312.4.4 0 0 0-.104-.208.44.44 0 0 0-.313-.156c-.104 0-.156.052-.208.052l.104.208h-.208v.156l-.416-.312.364.728c.088.23.281.405.52.468" class="st3"/><path d="M329.524 218.659a.61.61 0 0 0 .313.52c.104.104.26.208.311.26.053.052.104.104.157.104l.156-.104a.56.56 0 0 0 .156-.364 1 1 0 0 0-.104-.417c-.104-.311 0-.676-.156-1.144-.052-.104-.105-.156-.209-.156a.64.64 0 0 0-.416.208.68.68 0 0 0-.155.52v.312a.47.47 0 0 0-.053.26zm1.353 2.184q.2.08.416.105l.052-.105h.156l.052-.052v-.156a.8.8 0 0 0-.728-.52h-.156c-.104 0-.156.104-.156.208.009.23.151.433.364.52m2.08 0 .105.053.104.103h.052l.052-.051.052-.105a1.6 1.6 0 0 0 .104-.416.4.4 0 0 0-.156-.364.8.8 0 0 0-.468-.104.9.9 0 0 1-.375-.056.193.193 0 0 0-.25.108c-.052.104-.052.208.053.26q.379.268.728.572zm-102.485-39.797h-.104a.765.765 0 0 0-.572.78q.014.318.104.624v.053l.052.051c.052.053.156.053.105.105l.103-.053a1.33 1.33 0 0 0 .677-.728c.052-.052.052-.104.052-.208a.9.9 0 0 0-.052-.364.41.41 0 0 0-.364-.26zm2.185-4.11c-.103 0-.156 0-.207.052a.55.55 0 0 0-.26.468c.014.16.088.309.207.417l.053.051h.26l.104-.051v-.053q.089-.198.104-.416a.76.76 0 0 0-.104-.364c-.053-.052-.053-.104-.157-.104m130.786 20.119h-.156c-.052.052-.156.104-.156.208a.21.21 0 0 0 .104.208.52.52 0 0 1 .26.312.24.24 0 0 0 .26.208h.052c.053 0 .053 0 .104-.052l.053-.104v-.104a.56.56 0 0 0-.105-.417.41.41 0 0 0-.416-.26z" class="st0"/><path d="m165.756 97.289.104.052c.052-.052.104-.052.156-.104q.211-.296.364-.624a.1.1 0 0 0 0-.157c-.052-.052-.104-.103-.156-.103a.3.3 0 0 0-.208-.053.52.52 0 0 0-.572.52.63.63 0 0 0 .312.469m.364-2.758c0 .053.052.105.104.157l.208.103.104-.051c.052-.052.156-.104.208-.156l.052-.053c.147-.194.22-.433.208-.676a.56.56 0 0 0-.104-.416.52.52 0 0 0-.416-.208h-.156a.46.46 0 0 0-.416.468q.008.269.104.52zm1.665 1.613h.156a.566.566 0 0 0 .52-.572c0-.208-.208-.364-.416-.416h-.104a.47.47 0 0 0-.364.156.74.74 0 0 0-.104.312c.009.215.126.41.312.52m1.352 0 .104.104.156-.052h.053c.78-.312 1.404-1.352 1.716-1.976a.4.4 0 0 0-.052-.26.23.23 0 0 0-.26-.053 10 10 0 0 1-2.08.728l-.157.156a.16.16 0 0 0 0 .209c.156.364.312.728.52 1.145zm3.017.885h.105c.406-.216.665-.633.676-1.093a.73.73 0 0 0-.156-.468.52.52 0 0 0-.468-.208q-.13.034-.26.052a.87.87 0 0 0-.625.832c.01.427.31.794.728.885m5.099-3.278a.2.2 0 0 0-.026-.112l.014.004-.023-.027-.029-.044-.015-.02c.017.023.004.004 0-.001l-.007-.007q-.086-.027-.174-.046l-.081.008-.037.004a.3.3 0 0 0-.142.085 5 5 0 0 0-.677 1.145 1.56 1.56 0 0 1-.676.728c-.104.052-.156.104-.156.208q.021.119.104.208c.052.052.156.104.208.156h.26l.052-.052a2.8 2.8 0 0 1 .677-.364 1.22 1.22 0 0 0 .676-.676c0-.104.052-.208.052-.364.043-.17.06-.346.052-.52 0-.09-.033-.178-.044-.267-.002-.015-.008-.03-.008-.046" class="st2"/><path d="M178.4 92.3c0-.156-.209-.311-.364-.311-.313 0-.52.26-.728.467-.177.16-.32.355-.417.573v.156c.005.055.049.1.104.104.017.008.027.01.042.016-.056.017.478.088.478.088q.223-.151.468-.26a.69.69 0 0 0 .469-.624c0-.105-.053-.156-.053-.209zm156.223 130.468c.041.04.099.06.156.052.052 0 .104-.052.156-.104.148-.197.238-.431.26-.676a.52.52 0 0 0-.375-.525.193.193 0 0 0-.25.109 1.9 1.9 0 0 0-.103.572.85.85 0 0 0 .103.52z" class="st0"/><path d="M194.576 234.786c-.104 0-.155 0-.208.052a.55.55 0 0 0-.26.468c.015.16.09.308.208.416l.105.052h.155c.053 0 .105-.052.156-.104a1.2 1.2 0 0 0 .104-.416.75.75 0 0 0-.104-.364c-.051-.053-.051-.104-.156-.104" class="st2"/></svg>