<svg xmlns="http://www.w3.org/2000/svg" xml:space="preserve" viewBox="0 0 608.9 157.3"><switch><foreignObject width="1" height="1" x="0" y="0" requiredExtensions="http://ns.adobe.com/AdobeIllustrator/10.0/"/><g><path d="M174.4 67.5c-.2.4-.5.7-.8 1-.3.2-.7.3-1.1.3-.5 0-.9-.1-1.3-.4-.5-.3-1-.5-1.6-.9-.7-.3-1.3-.6-2-.9-.8-.3-1.7-.4-2.6-.4-1.4-.1-2.7.3-3.8 1.1-.8.7-1.3 1.8-1.2 2.9 0 .7.2 1.4.8 2s1.2 1 2 1.3c.9.4 1.8.8 2.8 1 1 .3 2.1.7 3.2 1 1.1.4 2.2.8 3.2 1.4 1 .5 2 1.2 2.8 2s1.5 1.8 2 2.9c.5 1.3.8 2.7.8 4.2q0 2.55-.9 5.1c-.6 1.5-1.5 2.9-2.7 4.1-1.3 1.2-2.8 2.2-4.4 2.8-1.9.7-3.9 1-5.9 1-1.2 0-2.5-.1-3.7-.4-1.2-.2-2.5-.6-3.7-1.1-1.2-.4-2.3-1-3.3-1.6q-1.5-.9-2.7-2.1l2.7-4.2c.2-.3.5-.6.8-.8.4-.2.7-.3 1.2-.3.6 0 1.1.2 1.6.5s1.2.7 1.8 1.1c.8.4 1.5.8 2.4 1.1 1 .4 2.1.5 3.2.5 1.4.1 2.7-.3 3.8-1.1 1-.9 1.5-2.1 1.4-3.4 0-.8-.2-1.6-.8-2.2-.5-.6-1.2-1.1-2-1.4-.9-.4-1.8-.7-2.8-1s-2.1-.6-3.2-.9c-1.1-.4-2.2-.8-3.2-1.3s-2-1.2-2.8-2c-.9-.9-1.5-2-2-3.1-.5-1.5-.8-3-.8-4.6 0-1.5.3-2.9.9-4.3s1.5-2.7 2.6-3.7c1.2-1.1 2.6-2 4.2-2.6 1.8-.7 3.8-1 5.7-1 1.2 0 2.3.1 3.5.3 1.1.2 2.2.5 3.2.8 1 .4 1.9.8 2.9 1.3.9.5 1.6 1.1 2.4 1.7zm26.1 31.1c-.6 0-1.2-.1-1.7-.3-.5-.3-.8-.8-1-1.3l-.6-1.5c-.7.6-1.3 1.1-1.9 1.5s-1.3.8-1.9 1.1c-.7.3-1.4.5-2.1.7-.8.2-1.7.2-2.5.2-1.1 0-2.3-.1-3.4-.5-.9-.3-1.8-.8-2.6-1.4-.7-.6-1.3-1.4-1.6-2.3-.4-1-.6-2.1-.6-3.2 0-1 .3-2 .7-2.9.6-1.1 1.5-2.1 2.5-2.8q2.25-1.5 4.8-2.1c2.5-.6 5.1-.9 7.7-.8v-1.2c.1-1.2-.2-2.5-1-3.5-.7-.7-1.7-1.1-2.8-1.1-.8 0-1.6.1-2.3.3-.6.2-1.1.4-1.6.7s-.9.5-1.4.7-1.1.3-1.6.3-1-.1-1.4-.4-.7-.6-.9-1l-1.5-2.5c1.6-1.4 3.4-2.5 5.4-3.2 2.1-.7 4.2-1.1 6.4-1.1 1.5 0 3 .2 4.4.8 1.3.5 2.4 1.2 3.3 2.2s1.6 2.1 2.1 3.4c.5 1.4.7 2.8.7 4.3v16.8h-3.6zm-9.3-4.9c.9 0 1.9-.2 2.7-.5q1.35-.6 2.4-1.8v-3.7c-1.3 0-2.7.1-4 .3-.9.1-1.7.4-2.5.8-.5.2-1 .6-1.3 1.1-.2.4-.4.8-.4 1.3-.1.7.2 1.5.8 2 .7.4 1.5.6 2.3.5m32.9 4.9h-7.3l-10.5-27h6.7c.5 0 1 .1 1.4.4.4.2.6.6.8 1l3.7 12.1c.3 1 .6 1.9.8 2.9s.5 1.9.7 2.8c.2-.9.4-1.9.7-2.8s.6-1.9.9-2.9l3.9-12.1c.1-.4.4-.8.8-1 .4-.3.9-.4 1.4-.4h6.4zm24.7-27.4c1.7 0 3.3.3 4.9.8 1.4.5 2.7 1.3 3.8 2.4s2 2.4 2.5 3.9c.6 1.7.9 3.4.9 5.2 0 .5 0 1-.1 1.5q0 .45-.3.9c-.1.2-.3.4-.6.5s-.6.1-.9.1h-15.6c.1 1.8.8 3.6 2.1 4.9 1.2 1 2.7 1.6 4.3 1.5q1.2 0 2.4-.3c.6-.2 1.2-.5 1.8-.8.5-.3 1-.5 1.5-.8.4-.2.9-.3 1.4-.3.6 0 1.1.2 1.5.7l2.3 2.9c-.8.9-1.7 1.7-2.7 2.3-.9.6-1.9 1.1-3 1.4-1 .3-2 .6-3 .7s-1.9.2-2.9.2c-1.8 0-3.6-.3-5.3-.9-1.6-.6-3.1-1.5-4.3-2.7-1.3-1.3-2.3-2.8-2.9-4.5-.8-2-1.1-4.1-1.1-6.3 0-1.7.3-3.5.9-5.1 1.2-3.2 3.7-5.8 6.8-7.1 1.8-.7 3.7-1.1 5.6-1.1m.2 5.6c-1.3-.1-2.6.4-3.6 1.3-1 1.1-1.6 2.4-1.7 3.8h10.1c0-.6-.1-1.3-.2-1.9-.2-.6-.4-1.1-.8-1.6q-.6-.75-1.5-1.2c-.8-.3-1.6-.4-2.3-.4M285.8 99c-1.2 0-2.3-.2-3.4-.6-1.9-.7-3.4-2.2-4-4.1-.4-1-.5-2.1-.5-3.2V77.2h-2.3c-.8 0-1.5-.6-1.5-1.4v-3.3l4.3-.8 1.6-6.6c.2-.8.9-1.4 1.8-1.2h4.2v7.9h6.6v5.5H286v13.4c0 .6.1 1.1.5 1.5.3.4.8.6 1.3.6.3 0 .5 0 .7-.1s.4-.1.5-.2.3-.1.4-.2.3-.1.5-.1.4 0 .6.2l.5.5 2.4 3.8c-1.1.8-2.2 1.4-3.5 1.8-1.3.3-2.7.5-4.1.5m11.3-.4V59.7h8.1V74c1-.8 2-1.5 3.2-2 1.3-.5 2.7-.8 4.1-.8 1.3 0 2.7.2 3.9.8 1.1.5 2.1 1.2 2.9 2.1.8 1 1.4 2.1 1.8 3.2.4 1.3.6 2.7.6 4.1v17.1h-8.1v-17c.1-1.1-.3-2.2-.9-3.1-.7-.8-1.7-1.2-2.7-1.1-.9 0-1.7.2-2.5.6s-1.6.9-2.2 1.5v19.2zM339 71.2c1.7 0 3.3.3 4.9.8 1.4.5 2.7 1.3 3.8 2.4s2 2.4 2.5 3.9c.6 1.7.9 3.4.9 5.2 0 .5 0 1-.1 1.5q0 .45-.3.9c-.1.2-.3.4-.6.5s-.6.1-.9.1h-15.5c.1 1.8.8 3.6 2.1 4.9 1.2 1 2.7 1.6 4.3 1.5q1.2 0 2.4-.3c.6-.2 1.2-.5 1.8-.8.5-.3 1-.5 1.5-.8.4-.2.9-.3 1.4-.3.6 0 1.1.2 1.5.7l2.3 2.9c-.8.9-1.7 1.7-2.7 2.3-.9.6-1.9 1.1-3 1.4-1 .3-2 .6-3 .7s-1.9.2-2.9.2c-1.8 0-3.6-.3-5.3-.9-1.6-.6-3.1-1.5-4.3-2.7-1.3-1.3-2.3-2.8-2.9-4.5-.8-2-1.1-4.1-1.1-6.3 0-1.7.3-3.5.9-5.1 1.2-3.2 3.7-5.8 6.8-7.1 1.7-.7 3.6-1.1 5.5-1.1m.2 5.6c-1.3-.1-2.6.4-3.6 1.3-1 1.1-1.6 2.4-1.7 3.8H344c0-.6-.1-1.3-.2-1.9-.2-.6-.4-1.1-.8-1.6q-.6-.75-1.5-1.2c-.8-.3-1.5-.4-2.3-.4m54 11.7c.2 0 .4 0 .6.1s.4.2.6.4l3.6 3.8c-1.5 2-3.6 3.6-5.9 4.6-2.7 1.1-5.5 1.6-8.4 1.6-2.7 0-5.4-.5-8-1.5q-3.45-1.5-6-4.2c-1.7-1.8-2.9-4-3.8-6.3-.9-2.6-1.3-5.2-1.3-7.9s.5-5.5 1.5-8q1.5-3.6 4.2-6.3c1.8-1.8 4-3.2 6.4-4.1 2.6-1 5.4-1.5 8.3-1.5 1.4 0 2.8.1 4.1.4 1.2.2 2.5.6 3.6 1.1 1.1.4 2.1 1 3.1 1.6.9.6 1.8 1.3 2.5 2.1l-3.1 4.1c-.2.3-.4.5-.7.7s-.7.3-1.1.3c-.3 0-.6-.1-.9-.2-.3-.2-.6-.3-.9-.5s-.7-.4-1.1-.7-.9-.5-1.4-.7c-.6-.2-1.2-.4-1.8-.5-.8-.2-1.6-.2-2.5-.2-1.5 0-3.1.3-4.5.9-1.3.6-2.5 1.4-3.5 2.5s-1.8 2.5-2.3 3.9c-.6 1.7-.8 3.4-.8 5.2s.2 3.6.8 5.3c.5 1.4 1.2 2.8 2.2 3.9.9 1 2 1.9 3.3 2.4 1.3.6 2.6.8 4 .8.8 0 1.5 0 2.2-.1.6-.1 1.3-.2 1.9-.4s1.1-.5 1.7-.8 1.1-.7 1.6-1.2c.2-.2.4-.3.7-.4.5-.1.8-.2 1.1-.2m8.9 10.1V59.7h8.1V74c1-.8 2-1.5 3.2-2 1.3-.5 2.7-.8 4.1-.8 1.3 0 2.7.2 3.9.8 1.1.5 2.1 1.2 2.9 2.1.8 1 1.4 2.1 1.8 3.2.4 1.3.6 2.7.6 4.1v17.1h-8.1v-17c.1-1.1-.3-2.2-.9-3.1-.7-.8-1.7-1.2-2.7-1.1-.9 0-1.7.2-2.5.6s-1.6.9-2.2 1.5v19.2zM442 64.3c0 .6-.1 1.2-.4 1.8s-.6 1.1-1.1 1.5-1 .8-1.6 1c-.6.3-1.3.4-1.9.4s-1.3-.1-1.8-.4c-.6-.2-1.1-.6-1.5-1s-.8-.9-1-1.5c-.3-.6-.4-1.2-.4-1.8s.1-1.3.4-1.8c.2-.6.6-1.1 1-1.5s1-.8 1.5-1c.6-.2 1.2-.4 1.8-.4.7 0 1.3.1 1.9.4 1.2.5 2.1 1.4 2.6 2.5.4.5.5 1.1.5 1.8m-.9 7.4v27H433v-27zm15.4-12v38.9h-8.1V59.7zm25.7 38.9c-.4 0-.9-.1-1.3-.3s-.6-.6-.7-1l-.6-2.1c-.5.6-1.1 1.1-1.7 1.6s-1.2.9-1.9 1.2-1.4.6-2.2.8-1.7.3-2.6.3q-2.1 0-3.9-.9c-1.2-.6-2.3-1.6-3.1-2.7-.9-1.3-1.6-2.8-2-4.3-.5-1.9-.8-3.9-.7-5.8 0-1.9.3-3.8.8-5.6q.75-2.4 2.4-4.5c1-1.2 2.2-2.2 3.7-3 1.5-.7 3.1-1.1 4.7-1.1 1.2 0 2.4.2 3.5.6.9.4 1.8.9 2.6 1.6V59.7h8.1v38.9zm-8.2-5.7c.5 0 1.1-.1 1.6-.2s.9-.3 1.3-.5.8-.5 1.1-.8c.4-.3.7-.7 1.1-1.1V78.9c-.5-.6-1.2-1.1-2-1.4-.7-.3-1.5-.4-2.2-.4s-1.4.1-2.1.4-1.2.8-1.6 1.4c-.5.8-.9 1.6-1.1 2.5-.3 1.2-.4 2.5-.4 3.8q0 1.8.3 3.6c.2.8.4 1.6.9 2.4.3.5.8 1 1.3 1.3.6.2 1.2.4 1.8.4m19.6 5.7v-27h4.8c.3 0 .7 0 1 .1.2.1.5.2.7.3.2.2.3.4.4.6.1.3.2.6.2.9l.4 2.5q1.35-2.1 3.3-3.6c1.2-.9 2.6-1.3 4-1.3 1.1-.1 2.1.3 3 .9l-1 5.9c0 .3-.2.6-.4.8s-.5.2-.8.2-.7 0-1-.1c-.5-.1-1-.1-1.5-.1-2.1 0-3.8 1.1-5 3.4v16.5zm32.5-27.4c1.7 0 3.3.3 4.9.8 1.4.5 2.7 1.3 3.8 2.4s2 2.4 2.5 3.9c.6 1.7.9 3.4.9 5.2 0 .5 0 1-.1 1.5q0 .45-.3.9c-.1.2-.3.4-.6.5s-.6.1-.9.1h-15.5c.1 1.8.8 3.6 2.1 4.9 1.2 1 2.7 1.6 4.3 1.5q1.2 0 2.4-.3c.6-.2 1.2-.5 1.8-.8.5-.3 1-.5 1.5-.8.4-.2.9-.3 1.4-.3.6 0 1.1.2 1.5.7l2.3 2.9c-.8.9-1.7 1.7-2.7 2.3-.9.6-1.9 1.1-3 1.4-1 .3-2 .6-3 .7s-1.9.2-2.9.2c-1.8 0-3.6-.3-5.3-.9-1.6-.6-3.1-1.5-4.3-2.7-1.3-1.3-2.3-2.8-2.9-4.5-.8-2-1.1-4.1-1.1-6.3 0-1.7.3-3.5.9-5.1 1.2-3.2 3.7-5.8 6.8-7.1 1.7-.7 3.6-1.1 5.5-1.1m.2 5.6c-1.3-.1-2.6.4-3.6 1.3-1 1.1-1.6 2.4-1.7 3.8h10c0-.6-.1-1.3-.2-1.9-.2-.6-.4-1.1-.8-1.6q-.6-.75-1.5-1.2c-.7-.3-1.5-.4-2.2-.4m17.1 21.8v-27h5c.4 0 .9.1 1.3.3s.6.6.7 1l.5 1.6c.5-.5 1.1-.9 1.6-1.4.6-.4 1.2-.8 1.8-1.1.7-.3 1.3-.5 2.1-.7s1.6-.3 2.4-.2c1.3 0 2.7.2 3.9.8 1.1.5 2.1 1.2 2.9 2.1.8 1 1.4 2.1 1.8 3.2.4 1.3.6 2.7.6 4.1v17.1h-8.1V81.5c.1-1.1-.3-2.2-.9-3.1-.7-.8-1.7-1.2-2.7-1.1-.9 0-1.7.2-2.5.6s-1.6.9-2.2 1.5v19.2z"/><path d="M121.4 49.3c4.8-5.6 6.9-8.2 6.4-9.7-.6-1.3-1.8-2.3-3.1-2.6-1.8-.7-4.3-1-5.5-.3-1 .8-1.9 1.8-2.7 2.8l-1.5 1.7c-1-1-2-2-3-2.8-7.3-6.4-16.3-10.5-25.9-12-3.9-4.1-8.9-6-13.9-5.3-4.3.7-8.1 3.3-10.4 7-9.9 3-18.7 8.6-25.7 16.3-1.6-.5-5 .1-7.2 1.3-1 .4-1.8 1.3-2.1 2.3-.1.7.2 1.7 2.8 4.8-6.9 10.9-9.8 23.8-8.4 36.6 1.5 12.8 7.6 24.6 17.3 33.1 3.4 3 7.2 5.5 11.2 7.4 18.8 9.1 40.8 8.3 58.9-2.1 1.5-.9 2-2.7 1.3-4.2l-.2-.5c-3-6.6-12-26.9-7-45.3 2.1-7.7 8.2-15.9 13.4-22.4 5.6 8.6 8.4 18.8 8 29.1-.3 9.4-3.5 18.5-9.2 26-.3.3-.3.7-.2 1.1l.6 1.3c.3.5.9.8 1.4.5.2-.1.3-.2.4-.3 14.9-18.6 16.7-44.5 4.3-63.8M55.9 92.9c-2 10.1-2.4 20.5-1.3 30.8-3.8-1.9-7.4-4.4-10.7-7.2-8.8-7.6-14.7-18-16.8-29.5-2-10.7-.2-21.8 5.1-31.3 2 2.1 4.4 4.5 6.9 6.9 6.1 6.1 13.1 13 16.5 17.9 2 2.8 1.4 6.4.3 12.4m53.5-45.7c-11.3 11.4-22 17.6-31.7 18.3-7.5.6-15.4-1.7-23.5-6.6-5.4-3.4-10.5-7.4-15-11.9l-.3-.3c5.6-6 12.6-10.3 20.5-12.7-.8 3.2-1 6.4-.5 9.7.8 5.7 3.8 10.8 8.3 14.3 6.4 5 15.6 3.8 20.6-2.5.2-.3.4-.5.6-.8 3.3-4.7 4.5-10.5 3.6-16.2-.2-1.1-.4-2.2-.7-3.2 5.7 2.2 11 5.3 15.5 9.4.8.7 1.7 1.5 2.6 2.5" style="fill:#da291c"/></g></switch></svg>